<svg width="11" height="19" viewBox="0 0 11 19" fill="none" xmlns="http://www.w3.org/2000/svg">
<path d="M7.14289 13.0769C8.09517 12.8609 9.01358 12.4859 9.8595 11.957C10.4997 11.5552 10.6925 10.7129 10.2892 10.0756C9.88609 9.43697 9.04046 9.24471 8.39916 9.64651C6.48284 10.8461 4.01564 10.8458 2.10044 9.64651C1.45914 9.24471 0.613231 9.43697 0.210988 10.0756C-0.192375 10.7134 -7.05691e-05 11.5552 0.640103 11.957C1.48602 12.4853 2.40443 12.8609 3.35671 13.0769L0.741154 15.6805C0.206509 16.2132 0.206509 17.077 0.741713 17.6098C1.0096 17.8759 1.36005 18.0091 1.71051 18.0091C2.06153 18.0091 2.41255 17.8759 2.68043 17.6098L5.24952 15.0513L7.82085 17.6098C8.3555 18.1425 9.22296 18.1425 9.75817 17.6098C10.2939 17.077 10.2939 16.2127 9.75817 15.6805L7.14289 13.0769Z" fill="white"/>
<path d="M9.90175 4.65247C9.90175 7.21732 7.80097 9.30366 5.21662 9.30366C2.63283 9.30366 0.531494 7.21732 0.531494 4.65247C0.531494 2.08678 2.63283 -0.00012207 5.21662 -0.00012207C7.80097 -0.00012207 9.90175 2.08678 9.90175 4.65247ZM7.1565 4.65245C7.1565 3.59021 6.28636 2.72644 5.21663 2.72644C4.14773 2.72644 3.27675 3.59021 3.27675 4.65245C3.27675 5.71385 4.14773 6.57818 5.21663 6.57818C6.28636 6.57818 7.1565 5.71385 7.1565 4.65245Z" fill="white"/>
</svg>
