<svg width="16" height="13" viewBox="0 0 16 13" fill="none" xmlns="http://www.w3.org/2000/svg">
<path fill-rule="evenodd" clip-rule="evenodd" d="M1.35797 5.52888C5.4923 3.72762 8.24916 2.54013 9.62856 1.96639C13.567 0.32824 14.3854 0.0436763 14.9188 0.0342799C15.0361 0.0322132 15.2985 0.0612881 15.4684 0.199164C15.6119 0.315583 15.6513 0.472849 15.6702 0.583228C15.6891 0.693606 15.7126 0.945051 15.6939 1.14152C15.4805 3.38402 14.557 8.82597 14.0872 11.3376C13.8884 12.4004 13.4969 12.7567 13.118 12.7916C12.2944 12.8674 11.669 12.2473 10.8714 11.7244C9.62316 10.9062 8.91801 10.3969 7.70642 9.59846C6.30622 8.67575 7.21391 8.16862 8.01189 7.33981C8.22072 7.12291 11.8494 3.82235 11.9196 3.52294C11.9284 3.48549 11.9366 3.34591 11.8536 3.27221C11.7707 3.1985 11.6483 3.22371 11.56 3.24375C11.4348 3.27216 9.44081 4.59013 5.57798 7.19764C5.01199 7.5863 4.49933 7.77566 4.04001 7.76574C3.53364 7.7548 2.55959 7.47943 1.83548 7.24405C0.947339 6.95535 0.241459 6.80271 0.302926 6.31241C0.334941 6.05703 0.686623 5.79585 1.35797 5.52888Z" fill="#259CD8"/>
</svg>
