<svg width="187" height="59" viewBox="0 0 187 59" fill="none" xmlns="http://www.w3.org/2000/svg">
<path d="M43.36 21.88C42.48 30.36 38.4 34.92 31.92 34.92C28.88 34.92 24.24 33.32 21.2 32.36C18.4 31.4 13.68 29.4 11.2 29.4C8.48 29.4 6.32 31.64 5.84 35.08H0.64C1.28 28.52 4.48 21.96 12 21.96C15.2 21.96 19.6 23.64 22.8 24.68C27.6 26.28 30.08 27.32 32.96 27.32C35.68 27.32 37.52 25.4 38.16 21.88H43.36ZM43.36 37.8C42.48 46.28 38.4 50.84 31.92 50.84C28.88 50.84 24.24 49.24 21.2 48.28C18.4 47.32 13.68 45.32 11.2 45.32C8.48 45.32 6.32 47.56 5.84 51H0.64C1.28 44.44 4.48 37.88 12 37.88C15.2 37.88 19.6 39.56 22.8 40.6C27.6 42.2 30.08 43.24 32.96 43.24C35.68 43.24 37.52 41.32 38.16 37.8H43.36ZM86.0488 48.92V57H47.8088C48.2088 44.2 55.0088 39.16 64.5288 32.76C70.1288 29 76.8488 25.48 76.8488 17.72C76.8488 11.88 73.4088 8.28 67.8088 8.28C59.5688 8.28 58.2888 15 58.1288 21.56H49.2488V20.12C49.2488 8.12 56.5287 0.439999 68.0488 0.439999C78.9288 0.439999 86.1288 7.08 86.1288 17.24C86.1288 27.8 78.6088 32.44 70.7688 37.64C66.6888 40.28 60.6888 44.28 58.7688 48.92H86.0488ZM106.982 46.2V57H96.1019V46.2H106.982ZM116.208 19C116.528 7.48 123.408 0.439999 134.448 0.439999C144.768 0.439999 151.808 6.52 151.808 15.48C151.808 20.92 148.768 25.32 143.968 26.92C150.288 28.52 154.128 33.4 154.128 40.12C154.128 50.84 145.968 58.2 134.288 58.2C122.608 58.2 114.848 50.84 114.848 39.8V38.6H123.648C123.888 46.44 127.488 50.36 134.528 50.36C140.688 50.36 144.608 46.52 144.608 40.36C144.608 33.48 139.408 31 133.408 31C132.368 31 131.888 31 130.528 31.08V24.2H131.328C136.928 24.2 142.848 23.32 142.848 16.12C142.848 11.24 139.488 7.96 134.288 7.96C128.448 7.96 125.168 11.8 124.928 19H116.208ZM166.227 47.032V57H164.477V52.52H159.913V57H158.163V47.032H159.913V50.994H164.477V47.032H166.227ZM168.28 47.032H172.998C174.79 47.032 176.358 47.746 176.358 49.804C176.358 51.008 175.756 51.89 174.706 52.254C175.98 52.534 176.106 53.5 176.19 54.522C176.288 55.712 176.316 56.552 176.722 57H174.846C174.594 56.622 174.58 55.936 174.524 55.012C174.426 53.444 174.034 52.884 172.34 52.884H170.016V57H168.28V47.032ZM170.016 48.46V51.582H172.326C173.474 51.582 174.622 51.414 174.622 49.986C174.622 48.67 173.6 48.46 172.55 48.46H170.016ZM186.692 53.206C186.51 55.628 184.844 57.238 182.352 57.238C179.538 57.238 177.69 55.166 177.69 52.016C177.69 49.188 179.412 46.808 182.436 46.808C184.424 46.808 186.272 47.9 186.608 50.21H184.872C184.634 49.006 183.696 48.292 182.408 48.292C180.308 48.292 179.454 50.182 179.454 52.016C179.454 53.864 180.266 55.754 182.394 55.754C184.018 55.754 184.76 54.676 184.942 53.206H186.692Z" fill="#FF3E41"/>
</svg>
