<svg width="187" height="59" viewBox="0 0 187 59" fill="none" xmlns="http://www.w3.org/2000/svg">
<path d="M43.36 21.88C42.48 30.36 38.4 34.92 31.92 34.92C28.88 34.92 24.24 33.32 21.2 32.36C18.4 31.4 13.68 29.4 11.2 29.4C8.48 29.4 6.32 31.64 5.84 35.08H0.64C1.28 28.52 4.48 21.96 12 21.96C15.2 21.96 19.6 23.64 22.8 24.68C27.6 26.28 30.08 27.32 32.96 27.32C35.68 27.32 37.52 25.4 38.16 21.88H43.36ZM43.36 37.8C42.48 46.28 38.4 50.84 31.92 50.84C28.88 50.84 24.24 49.24 21.2 48.28C18.4 47.32 13.68 45.32 11.2 45.32C8.48 45.32 6.32 47.56 5.84 51H0.64C1.28 44.44 4.48 37.88 12 37.88C15.2 37.88 19.6 39.56 22.8 40.6C27.6 42.2 30.08 43.24 32.96 43.24C35.68 43.24 37.52 41.32 38.16 37.8H43.36ZM49.4888 19C49.8088 7.48 56.6888 0.439999 67.7288 0.439999C78.0488 0.439999 85.0888 6.52 85.0888 15.48C85.0888 20.92 82.0488 25.32 77.2488 26.92C83.5688 28.52 87.4088 33.4 87.4088 40.12C87.4088 50.84 79.2488 58.2 67.5688 58.2C55.8888 58.2 48.1288 50.84 48.1288 39.8V38.6H56.9288C57.1688 46.44 60.7688 50.36 67.8088 50.36C73.9688 50.36 77.8888 46.52 77.8888 40.36C77.8888 33.48 72.6888 31 66.6888 31C65.6488 31 65.1688 31 63.8088 31.08V24.2H64.6088C70.2088 24.2 76.1288 23.32 76.1288 16.12C76.1288 11.24 72.7688 7.96 67.5688 7.96C61.7288 7.96 58.4488 11.8 58.2088 19H49.4888ZM106.982 46.2V57H96.1019V46.2H106.982ZM142.848 0.679996V57H133.088V18.28H119.168V11.56C125.168 11.56 133.888 10.44 135.488 0.679996H142.848ZM166.227 47.032V57H164.477V52.52H159.913V57H158.163V47.032H159.913V50.994H164.477V47.032H166.227ZM168.28 47.032H172.998C174.79 47.032 176.358 47.746 176.358 49.804C176.358 51.008 175.756 51.89 174.706 52.254C175.98 52.534 176.106 53.5 176.19 54.522C176.288 55.712 176.316 56.552 176.722 57H174.846C174.594 56.622 174.58 55.936 174.524 55.012C174.426 53.444 174.034 52.884 172.34 52.884H170.016V57H168.28V47.032ZM170.016 48.46V51.582H172.326C173.474 51.582 174.622 51.414 174.622 49.986C174.622 48.67 173.6 48.46 172.55 48.46H170.016ZM186.692 53.206C186.51 55.628 184.844 57.238 182.352 57.238C179.538 57.238 177.69 55.166 177.69 52.016C177.69 49.188 179.412 46.808 182.436 46.808C184.424 46.808 186.272 47.9 186.608 50.21H184.872C184.634 49.006 183.696 48.292 182.408 48.292C180.308 48.292 179.454 50.182 179.454 52.016C179.454 53.864 180.266 55.754 182.394 55.754C184.018 55.754 184.76 54.676 184.942 53.206H186.692Z" fill="#898989"/>
</svg>
