<svg width="56" height="47" viewBox="0 0 56 47" fill="none" xmlns="http://www.w3.org/2000/svg">
	<path d="M1.74846e-06 10C7.8281e-07 4.47715 4.47715 1.18096e-06 10 4.8135e-09L46 -7.66175e-06C51.5229 -8.8379e-06 56 4.47714 56 9.99999L56 25.8095C56 31.3324 51.5229 35.8095 46 35.8095L37.194 35.8095C36.5557 35.8095 35.9558 36.1141 35.5792 36.6294L29.6567 44.7332C28.8457 45.8429 27.1828 45.8227 26.399 44.6935L20.8288 36.6691C20.4551 36.1307 19.8412 35.8095 19.1858 35.8095L10 35.8095C4.47715 35.8095 5.47833e-06 31.3324 4.51268e-06 25.8095L1.74846e-06 10Z" fill="#FF3E41"/>
	<g clip-path="url(#clip0_776_720)">
	<path fill-rule="evenodd" clip-rule="evenodd" d="M7.63037 25.7722H11.6265V16.4432C13.4872 19.659 15.3032 22.7974 17.1563 26.0002C18.9986 22.8272 20.8518 19.6259 22.6949 16.4414V25.7722H25.7325H26.6911H37.5241L35.6678 22.6565H26.6911V19.1869H33.7632L31.9068 16.0711H26.6911V12.6844H30.061L28.2046 9.56872C26.3684 9.56872 24.5573 9.53693 22.695 9.53693L17.1608 19.3827L11.6266 9.53693H7.63048V25.7722L7.63037 25.7722ZM48.0001 9.56868C41.5959 9.56868 35.3153 9.56868 28.9099 9.56868L30.7663 12.6844H35.3199H36.5406V22.6565L38.5357 26.0002L40.5368 22.6565V12.6844H41.5901H46.1438L48.0001 9.56868H48.0001Z" fill="white"/>
	</g>
	<defs>
	<clipPath id="clip0_776_720">
	<rect width="40.3698" height="16.4633" fill="white" transform="translate(7.63037 9.53674)"/>
	</clipPath>
	</defs>
	</svg>
	