<svg width="17" height="15" viewBox="0 0 17 15" fill="none" xmlns="http://www.w3.org/2000/svg">
<path fill-rule="evenodd" clip-rule="evenodd" d="M2.69095 4.74376L0.833374 1.84129L2.79867 0.583496L4.32117 2.96239H16.5371L13.0371 9.96239H5.82213L2.69095 4.74376ZM5.74325 5.29573L7.14325 7.62906H11.595L12.7617 5.29573H5.74325Z" fill="white"/>
<path d="M8.81602 12.8791C8.81602 13.8456 8.03252 14.6291 7.06602 14.6291C6.09952 14.6291 5.31602 13.8456 5.31602 12.8791C5.31602 11.9126 6.09952 11.1291 7.06602 11.1291C8.03252 11.1291 8.81602 11.9126 8.81602 12.8791Z" fill="white"/>
<path d="M11.7327 14.6291C12.6992 14.6291 13.4827 13.8456 13.4827 12.8791C13.4827 11.9126 12.6992 11.1291 11.7327 11.1291C10.7662 11.1291 9.98269 11.9126 9.98269 12.8791C9.98269 13.8456 10.7662 14.6291 11.7327 14.6291Z" fill="white"/>
</svg>
