<svg width="132" height="125" viewBox="0 0 132 125" fill="none" xmlns="http://www.w3.org/2000/svg">
<path d="M23.304 38.2767L18.7907 44.2517L26.1765 49.8306L27.156 48.5339L20.8905 43.8013L23.4448 40.4196L29.7103 45.1522L30.6897 43.8556L23.304 38.2767Z" fill="#CBCECF"/>
<path d="M29.8187 31.7406C27.5769 33.4743 27.5854 36.1629 29.2475 38.3122C31.013 40.5952 33.633 41.0506 35.7308 39.4282C37.8184 37.8138 38.047 35.1556 36.2815 32.8726C34.524 30.5999 31.8857 30.1422 29.8187 31.7406ZM30.6332 32.8363C31.9906 31.7866 33.6815 32.1881 34.9778 33.8643C36.2741 35.5406 36.2533 37.2987 34.9164 38.3325C33.5384 39.3982 31.8474 38.9967 30.5273 37.2896C29.2469 35.6339 29.286 33.8781 30.6332 32.8363Z" fill="#CBCECF"/>
<path d="M47.5005 28.6861C48.2052 30.8285 47.3482 32.8018 45.2104 33.6875C42.7963 34.6875 40.4746 33.5668 39.3551 30.8645C38.35 28.4385 38.9814 25.7848 41.5756 24.71C43.2811 24.0035 45.2545 24.2835 46.3637 26.1458L44.8744 26.7628C44.2424 25.8145 43.1839 25.5353 42.079 25.9931C40.2775 26.7394 40.2166 28.6643 40.8684 30.2376C41.5252 31.823 42.8935 33.1557 44.719 32.3995C46.1122 31.8223 46.3656 30.6338 45.9993 29.308L47.5005 28.6861Z" fill="#CBCECF"/>
<path d="M59.4469 20.7571L57.2011 21.0276L55.5891 28.5152L52.1546 21.6356L49.896 21.9077L51.0031 31.0973L52.5261 30.9138L51.6724 23.828L55.1461 30.5981L56.4626 30.4395L58.1645 23.0459L59.0181 30.1317L60.554 29.9466L59.4469 20.7571Z" fill="#CBCECF"/>
<path d="M68.6659 21.2271C71.242 21.665 72.6922 23.9159 72.2108 26.7483C71.7271 29.5934 69.6167 31.2258 67.015 30.7836C64.4005 30.3391 62.9608 28.1032 63.4445 25.258C63.8999 22.5795 65.872 20.7521 68.6659 21.2271ZM68.4115 22.5684C66.7326 22.283 65.4145 23.4435 65.0637 25.5069C64.702 27.6344 65.552 29.1503 67.2694 29.4422C68.9355 29.7255 70.243 28.55 70.5981 26.4609C70.9532 24.3719 70.1032 22.856 68.4115 22.5684Z" fill="#CBCECF"/>
<path d="M84.0494 26.3819L83.4726 27.6619L80.7821 26.4496L77.5564 33.6084L76.0748 32.9408L79.3006 25.782L76.6101 24.5697L77.1869 23.2897L84.0494 26.3819Z" fill="#CBCECF"/>
<path d="M88.4305 28.8352L82.7951 36.1779L84.0842 37.1673L86.2529 34.3416L88.3258 35.9325C89.8108 37.0722 91.3887 36.8739 92.4572 35.4817C93.6366 33.9451 93.1332 32.4444 91.6172 31.2809L88.4305 28.8352ZM88.8965 30.8971L90.5775 32.1872C91.3922 32.8125 91.9035 33.5982 91.1753 34.547C90.5105 35.4133 89.6821 35.3183 88.8467 34.6772L87.0523 33.3L88.8965 30.8971Z" fill="#CBCECF"/>
<path d="M101.452 41.2727L100.395 42.1357L97.1973 38.2178L95.2937 39.7713L98.261 43.4072L97.2437 44.2374L94.2765 40.6015L92.1614 42.3276L95.4081 46.3059L94.3305 47.1854L90.0645 41.9581L97.2356 36.1059L101.452 41.2727Z" fill="#CBCECF"/>
<path d="M107.071 51.1935L105.81 51.8103L104.514 49.1594L97.4601 52.6092L96.7461 51.1494L103.8 47.6996L102.503 45.0487L103.764 44.4318L107.071 51.1935Z" fill="#CBCECF"/>
<path d="M104.214 64.185C105.988 63.7781 106.736 62.4461 106.283 60.4695L105.731 58.062L109.177 57.2715L108.814 55.6876L99.7924 57.7569L100.708 61.7482C101.158 63.7122 102.428 64.5948 104.214 64.185ZM103.813 62.6098C102.837 62.8336 102.224 62.4274 101.986 61.3884L101.448 59.0443L104.438 58.3584L104.97 60.6772C105.197 61.6655 104.763 62.3919 103.813 62.6098Z" fill="#CBCECF"/>
<path d="M111.13 72.7017L110.578 76.8906C110.317 78.8754 109.245 79.744 107.879 79.5641C106.99 79.447 106.326 78.8089 106.119 77.9948C105.724 79.0049 104.847 79.5845 103.662 79.4283C102.038 79.2145 101.111 77.8862 101.337 76.172L101.953 71.4933L111.13 72.7017ZM109.621 74.1027L107.095 73.7701L106.806 75.9612C106.648 77.1598 106.904 77.8097 107.832 77.9319C108.979 78.083 109.205 77.2605 109.326 76.3454L109.621 74.1027ZM105.935 73.6173L103.061 73.2389L102.743 75.6491C102.601 76.7317 102.74 77.6679 103.912 77.8223C105.176 77.9886 105.483 77.0458 105.621 76.0018L105.935 73.6173Z" fill="#FF3E41"/>
<path d="M100.468 81.6147L109.047 85.0903L108.436 86.5963L101.858 83.9311L106.943 90.2833L106.235 92.0303L97.6561 88.5548L98.2663 87.0487L104.845 89.7139L99.76 83.3618L100.468 81.6147Z" fill="#FF3E41"/>
<path d="M89.6014 96.495L90.5399 95.2326L92.3865 96.6053L95.9851 91.7643L94.1384 90.3915L95.0768 89.1291L98.0503 91.3394L97.5152 92.0593C98.098 93.3673 99.903 95.3408 101.948 96.8608L103.096 97.7139L99.497 102.555L93.1954 97.8706L92.5749 98.7053L89.6014 96.495ZM94.1648 96.5665L99.3397 100.413L101.023 98.1492L100.574 97.8157C98.7273 96.443 97.0633 94.6067 96.4759 93.4574L94.1648 96.5665Z" fill="#FF3E41"/>
<path d="M90.7999 110.758L89.9329 109.704L93.8387 106.492L92.2781 104.594L88.6534 107.575L87.8194 106.561L91.4441 103.58L89.7101 101.471L85.744 104.733L84.8605 103.659L90.0717 99.373L95.9508 106.522L90.7999 110.758Z" fill="#FF3E41"/>
<path d="M83.3773 115.47C81.0094 116.575 78.5363 115.549 77.3215 112.945C76.1012 110.33 76.9087 107.787 79.3001 106.671C81.7034 105.55 84.1592 106.57 85.3795 109.185C86.5283 111.647 85.9455 114.272 83.3773 115.47ZM82.8237 114.222C84.3669 113.502 84.7911 111.798 83.9061 109.901C82.9936 107.946 81.4324 107.182 79.8538 107.919C78.3223 108.634 77.9154 110.344 78.8114 112.264C79.7074 114.185 81.2686 114.948 82.8237 114.222Z" fill="#FF3E41"/>
</svg>
