<?xml version="1.0" encoding="utf-8"?><svg width="65" height="16" fill="none" xmlns="http://www.w3.org/2000/svg" viewBox="0 0 65 16"><path d="M0 .003c1.606.005 3.212 0 4.818.002-.003 1.361 0 2.722-.001 4.083.006.458-.012.916.01 1.374v.01a.358.358 0 00.012-.01c.285-.247.54-.53.8-.803C6.94 3.355 8.212 2.025 9.508.717c.237-.231.456-.48.692-.711C11.706 0 13.213.012 14.721 0a2657.031 2657.031 0 01-4.672 4.657c1.023 2.542 2.025 5.094 3.04 7.64.062.122.077.276.178.376 1.395-4.22 2.78-8.446 4.166-12.67 1.2.004 2.399.002 3.599 0 1.33 4.027 2.668 8.05 3.999 12.076.027.066.027.15.093.194.006-4.09.003-8.18 0-12.27 1.946.006 3.89 0 5.835.003.69 2.327 1.394 4.65 2.09 6.975.187.648.401 1.29.57 1.943.061-.069.084-.158.111-.242.956-2.894 1.923-5.784 2.876-8.678 1.857.002 3.714.002 5.571 0-.008 4.069.004 8.138-.005 12.207l.06.002c.329-1.064.698-2.117 1.04-3.178.782-2.363 1.555-4.728 2.34-7.09.204-.648.434-1.287.632-1.937 1.204-.008 2.408 0 3.611-.003 1.324 4.082 2.664 8.158 3.992 12.238.11.321.202.649.324.966 1.465-3.483 2.92-6.97 4.377-10.457-1.48.002-2.958-.001-4.437.002.001-.917.004-1.833-.002-2.75 3.63.002 7.26.001 10.891 0-1.799 4.413-3.581 8.832-5.374 13.247 1.788-.004 3.576.002 5.364-.003-.008.714-.042 1.428-.056 2.143-.02.192.02.394-.044.58-1.178-.02-2.354.016-3.53.008-1.21-.004-2.42.002-3.63.01-2.493-.005-4.985.015-7.476.008-.19-.592-.388-1.183-.576-1.777h-4.765c-.192.594-.39 1.185-.58 1.778-2.317 0-4.635-.003-6.953.002.003-2.861.006-5.723-.001-8.584l-.047.05c-.864 2.846-1.738 5.688-2.6 8.533-1.292-.004-2.584-.001-3.876 0-.764-2.398-1.524-4.797-2.287-7.194-.137-.47-.318-.928-.43-1.404h-.05c.004 2.866-.003 5.732.003 8.599-2.228-.006-4.457 0-6.685-.003-.177-.596-.386-1.182-.568-1.777h-4.77c-.198.592-.386 1.187-.585 1.779-2.125-.003-4.25-.002-6.376 0-.983-2.538-1.968-5.074-2.95-7.612-.412.376-.79.79-1.203 1.167-.051.06-.143.11-.137.201-.002 2.08-.001 4.161 0 6.242C3.21 16 1.605 15.994 0 16 .004 10.667.004 5.335 0 .003zM18.432 6.95c-.47 1.512-.988 3.008-1.461 4.519.989-.002 1.977.003 2.966-.003-.435-1.327-.869-2.655-1.306-3.98-.067-.179-.092-.377-.199-.536zm28.837.018c-.109.406-.256.8-.38 1.203-.356 1.098-.713 2.196-1.067 3.295.986.003 1.971.007 2.956-.002a624.843 624.843 0 01-1.466-4.497l-.043.001z" fill="#fff"/></svg>