<?xml version="1.0" encoding="utf-8"?><svg width="72" height="16" fill="none" xmlns="http://www.w3.org/2000/svg" viewBox="0 0 72 16"><path d="M10.545 7.817c-.058-.023-.127-.046-.127-.114 0-.046.023-.08.069-.103.08-.034 2.08-.743 2.08-3.074 0-2.595-1.768-4.137-4.75-4.137H.598v15.245h7.88c2.299 0 4.771-1.611 4.771-4.205 0-2.48-1.894-3.349-2.703-3.612zM4.235 3.51c0-.058.047-.103.105-.103h2.865c.948 0 1.595.628 1.595 1.565 0 .732-.578 1.52-1.664 1.52H4.34a.103.103 0 01-.104-.102v-2.88zm2.97 9.12H4.34a.103.103 0 01-.104-.103v-3.04c0-.057.046-.103.104-.103h2.796c1.375 0 2.16.583 2.16 1.611 0 1.063-.727 1.635-2.09 1.635zm30.436-6.172l-.555-.114c-1.248-.263-2.461-.594-2.461-1.657 0-1.063 1.005-1.543 1.999-1.543 1.167 0 2.322.514 3.2 1.406l2.288-2.24C41.13 1.234 39.385 0 36.566 0c-3.397 0-5.685 1.909-5.685 4.754 0 3.006 2.392 4.137 4.402 4.56l.544.115c1.952.411 2.877.72 2.877 1.817 0 .983-.89 1.634-2.207 1.634-1.549 0-2.924-.674-3.964-1.943l-2.345 2.274c1.248 1.463 2.9 2.789 6.355 2.789 2.946 0 5.939-1.691 5.939-4.937-.011-3.326-2.3-4.08-4.841-4.606zM68.087.39v5.577a.103.103 0 01-.104.103h-4.737a.103.103 0 01-.104-.103V.389h-3.883v15.245h3.883V9.646c0-.057.046-.103.104-.103h4.737c.058 0 .104.046.104.103v5.988h3.906V.39h-3.906zM51.448 12.514c-1.744 0-3.628-1.44-3.628-4.605 0-2.892 1.768-4.4 3.513-4.4 1.271 0 2.16.525 2.866 1.691l2.98-1.954C55.655 1.029 53.84.023 51.31.023c-4.956 0-7.175 3.966-7.175 7.886 0 4.765 2.935 8.091 7.13 8.091 3.12 0 4.54-1.131 6.031-3.223l-3.004-2c-.67 1.074-1.398 1.737-2.842 1.737zM21.973 0c-4.24 0-7.083 3.211-7.083 8s2.843 8 7.083 8 7.083-3.211 7.083-8-2.842-8-7.083-8zm0 12.514c-2.08 0-3.42-1.771-3.42-4.514 0-2.731 1.34-4.491 3.42-4.491 2.092 0 3.444 1.76 3.444 4.491 0 2.743-1.352 4.514-3.444 4.514z" fill="#fff"/></svg>