<?xml version="1.0" encoding="utf-8"?><svg width="100" height="34" fill="none" xmlns="http://www.w3.org/2000/svg" viewBox="0 0 100 34"><path d="M28.728 33.833h-2.312l-4.749-11.297h3.316l2.674 7.192h.047l2.625-7.192h3.126l-4.727 11.297zM51.073 25.456a2.928 2.928 0 00-1.431-.404c-.668 0-1.288.237-2.076.879v7.832h-3.223V22.536h2.721l.358 1.163c1.028-.9 1.908-1.423 3.102-1.423.549 0 1.218.166 1.717.522l-1.168 2.658zM55.815 34c-1.933 0-3.389-.452-4.464-1.116l1.004-2.325c.954.663 2.077 1.044 3.15 1.044 1.098 0 1.79-.356 1.79-1.021 0-1.78-5.227-1.067-5.227-4.865 0-2.065 1.67-3.441 4.414-3.441 1.505 0 2.555.213 3.484.57v2.657c-1.025-.404-2.122-.76-3.339-.76-.931 0-1.433.26-1.433.807 0 1.542 5.32.973 5.32 4.89 0 2.587-2.29 3.56-4.699 3.56zM65.535 34c-2.101 0-2.889-1.187-2.889-2.706v-5.946H60.57v-2.517h2.076v-2.905l3.222-.95v3.855H69.4l-.636 2.517h-2.895v4.737c0 .828.332 1.232 1.073 1.232.69 0 1.408-.307 1.837-.57l.836 1.995c-1.288.926-2.96 1.258-4.08 1.258zM76.348 28.683l-1.407.047c-1.384.049-2.053.524-2.053 1.378 0 .853.62 1.4 1.72 1.4.857 0 1.43-.286 1.74-.523v-2.302zm.788 5.08l-.502-.974c-.739.665-1.74 1.211-3.198 1.211-2.147 0-3.767-1.424-3.767-3.657 0-2.372 1.931-3.606 4.793-3.702l1.91-.07v-.19c0-1.186-.954-1.685-2.074-1.685a5.885 5.885 0 00-2.888.76l-.981-1.946c1.552-1 3.032-1.235 4.559-1.235 3.008 0 4.678 1.21 4.678 4.177v7.325l-2.53-.014zM84.33 33.777v-18.04l-3.244.976v17.064h3.245zM5.259 34c-2.27 0-3.892-.736-5.259-1.568l1.435-2.676c1.088.733 2.634 1.56 3.637 1.56 1.033 0 2.381-.337 2.381-1.528 0-2.064-3.724-2.434-5.633-4.593-.595-.688-1.002-1.567-1.002-2.778 0-2.372 1.886-4.463 5.346-4.463 1.67 0 3.053.429 3.962.951l-.048 2.996c-1.336-.712-2.606-1.336-3.896-1.336-1.169 0-1.94.516-1.94 1.418 0 2.706 6.765 2.474 6.765 7.389C11.007 32.22 8.477 34 5.26 34zM38.007 24.63c-1.284 0-2.021 1.182-2.021 2.2h4.064c-.072-1.065-.665-2.2-2.043-2.2zm-1.95 4.398c.071 1.513 1.497 2.41 2.994 2.41 1.093 0 1.927-.211 3.19-.802l.738 2.033c-1.573.969-3.12 1.3-4.45 1.3-4.04 0-5.706-2.838-5.706-5.768 0-3.168 1.903-5.912 5.277-5.912 3.091 0 5.231 2.294 5.231 5.77v.97h-7.274zM16.964 24.63c-1.284 0-2.02 1.182-2.02 2.2h4.066c-.071-1.065-.668-2.2-2.046-2.2zm-1.95 4.398c.072 1.513 1.5 2.41 2.997 2.41 1.094 0 1.925-.211 3.19-.802l.737 2.033c-1.575.969-3.12 1.3-4.451 1.3-4.04 0-5.704-2.838-5.704-5.768 0-3.168 1.902-5.912 5.275-5.912 3.09 0 5.23 2.294 5.23 5.77v.97h-7.274zM97.875 12.85c.207-.066.408-.174.603-.312.3-.769.578-1.625.827-2.577h-.001c.328-1.26.527-2.399.624-3.421.098-1.038.091-1.956.008-2.766-.09-.847-.314-1.71-.822-2.207-.507-.496-1.377-.705-2.232-.778a13.2 13.2 0 00-.564-.029h-.906c-.412.012-.847.042-1.303.091.22.099.415.22.576.364.509.464.747 1.254.85 2.028.075.563.107 1.183.085 1.86-.036 1.095-.213 2.343-.581 3.76a18.372 18.372 0 01-.988 2.865c.57.35 1.116.627 1.634.84.727.298 1.535.489 2.19.282z" fill="#fff"/><path d="M85.846 10.505c-.047.21-.052.44-.03.68a23.7 23.7 0 001.825 1.992 21.69 21.69 0 002.683 2.248c.852.599 1.652 1.05 2.392 1.388.778.358 1.646.588 2.331.4.686-.191 1.304-.839 1.795-1.538.468-.666.92-1.467 1.34-2.42a2.185 2.185 0 01-.615.319c-.657.207-1.464.017-2.19-.282a11.45 11.45 0 01-1.664-.856c-.933-.578-1.932-1.355-2.982-2.379v-.002a18.506 18.506 0 01-2-2.282c-.588.316-1.1.646-1.544.986-.623.477-1.193 1.076-1.34 1.746z" fill="#fff"/><path d="M93.896 1.299A2.153 2.153 0 0093.35.95c-.826.123-1.715.31-2.678.575a22.186 22.186 0 00-3.285 1.171c-.944.431-1.736.892-2.396 1.364-.704.502-1.353 1.133-1.532 1.825-.179.692.08 1.556.45 2.334.346.731.816 1.517 1.431 2.349a2.182 2.182 0 01.03-.692c.148-.668.718-1.27 1.34-1.747.452-.345.973-.68 1.575-1.002.97-.516 2.148-.988 3.566-1.38 1.09-.3 2.08-.485 2.98-.58.021-.67-.01-1.284-.085-1.84-.103-.774-.341-1.565-.85-2.028z" fill="#fff"/></svg>