<?xml version="1.0" encoding="utf-8"?><svg width="69" height="27" fill="none" xmlns="http://www.w3.org/2000/svg" viewBox="0 0 69 27"><path fill-rule="evenodd" clip-rule="evenodd" d="M0 13.5C0 6.044 15.446 0 34.5 0 53.554 0 69 6.044 69 13.5S53.554 27 34.5 27C15.446 27 0 20.956 0 13.5zm42.195 1.182a.112.112 0 00-.033-.058.116.116 0 00-.06-.03 48.907 48.907 0 00-2.991-.334c-.059-.01-.1-.063-.062-.19 3.189-3.282 4.4-7.458 2.788-10.726a.112.112 0 01.044-.076.117.117 0 01.086-.024C52.939 4.546 60.95 8.645 60.95 13.5c0 5.903-11.841 10.688-26.45 10.688-14.608 0-26.45-4.785-26.45-10.688 0-5.117 8.9-9.394 20.787-10.442.058.002.107.045.11.134l-2.581 13.903a1.653 1.653 0 00.364 1.395c.161.191.365.346.595.452.23.106.481.16.735.16l.093.006c2.302-.118 4.775-.82 7.112-2.14.662-.374 1.3-.789 1.908-1.241a.116.116 0 01.126-.012c.779.506 1.226 1.1 1.226 1.735 0 .862-.826 1.649-2.186 2.245-1.58.694-3.879 1.13-6.439 1.13-2.17 0-4.151-.314-5.69-.836a.117.117 0 00-.117.05.112.112 0 00-.016.041l-.219 1.179a.111.111 0 00.02.08c.017.023.042.039.07.045 3.128.712 6.726 1.117 10.555 1.117 4.763 0 8.625-1.512 8.625-3.375 0-.725-.584-1.396-1.577-1.946-.87-.417-1.418-.959-1.284-1.321.14-.377.972-.437 1.961-.176.056.007.11-.026.13-.124l-.163-.877zM34.5 6.172c0 .074-.002.146-.007.218.126 2.477-1.44 5.792-4.301 8.59a18.159 18.159 0 01-1.81 1.555.115.115 0 01-.086.015c-.06-.013-.098-.068-.088-.137l2.804-15.1a.112.112 0 00-.033-.073.116.116 0 00-.076-.033C15.449 1.918 3.45 7.15 3.45 13.5c0 6.834 13.901 12.375 31.05 12.375s31.05-5.54 31.05-12.375S51.65 1.125 34.5 1.125c-.543 0-1.084.006-1.626.017a.117.117 0 00-.07.024.113.113 0 00-.041.062l-.328 1.762a.112.112 0 00.054.115c.6.27 1.109.702 1.465 1.246a3.32 3.32 0 01.546 1.822z" fill="#fff"/></svg>