<?xml version="1.0" encoding="utf-8"?><svg width="37" height="37" fill="none" xmlns="http://www.w3.org/2000/svg" viewBox="0 0 37 37"><path fill-rule="evenodd" clip-rule="evenodd" d="M18.5 0C28.679 0 37 8.32 37 18.517 37 28.697 28.68 37 18.5 37S0 28.697 0 18.517C0 8.321 8.32 0 18.5 0zM6.114 8.564l6.636 17.214 2.432-6.288h6.375l2.431 6.288 6.706-17.423a15.985 15.985 0 00-4.204-3.578l-4.655 12.82h-6.567L10.596 4.725a16.102 16.102 0 00-4.482 3.839zm27.255 4.325l-7.556 19.716c5.072-2.658 8.563-7.973 8.563-14.087 0-1.98-.347-3.875-1.007-5.629zM22.512 33.89l-.052-.4-4.1-10.63-4.099 10.63-.017.33c1.355.383 2.78.574 4.256.574 1.39 0 2.727-.173 4.012-.504zm-11.638-1.459L3.509 13.237a15.61 15.61 0 00-.904 5.28c0 5.976 3.336 11.221 8.269 13.914zM18.5 2.623c1.39 0 2.762.174 4.064.52l-4.012 11.1-4.03-11.116c1.299-.336 2.636-.506 3.978-.504z" fill="#fff"/></svg>