<?xml version="1.0" encoding="utf-8"?><svg width="64" height="29" fill="none" xmlns="http://www.w3.org/2000/svg" viewBox="0 0 64 29"><path d="M45.297 2.554v1.04h8.898c.593 0 1.483 0 2.067.594.584.594.593 1.486.593 2.072v8.916c0 .594 0 1.486-.593 2.071-.593.595-1.483.595-2.067.595h-4.296c-.74 0-1.706 0-2.068-.818-.37-.818.149-1.56.594-2.162l5.788-7.727h-8.898l-3.559 4.755c-.597.796-1.113 1.486-1.113 2.378 0 .891.48 1.533 1.113 2.377l.89 1.19c.89 1.188 1.78 2.377 2.966 2.971 1.186.595 2.588.595 4.53.595h3.846c2.229 0 5.554 0 7.783-2.234C64 16.934 64 13.673 64 12.485V8.918c0-1.189 0-4.449-2.229-6.682C59.542.002 56.217.002 53.988.002L47.84 0c-.593 0-1.333 0-1.923.594-.593.595-.593 1.337-.593 1.928" fill="#fff"/><path d="M34.692 7.165h8.807L32.894 21.467h-8.807L34.692 7.165zM0 9.687c0-.595 0-1.337.593-1.928.593-.59 1.334-.594 1.924-.594h14.9c1.924 0 3.344 0 4.53.594 1.187.595 2.068 1.784 2.966 2.973l.89 1.188c.631.843 1.113 1.486 1.113 2.378 0 .892-.516 1.581-1.113 2.378l-3.559 4.755h-8.898l5.788-7.728c.444-.594.964-1.336.594-2.16-.37-.819-1.334-.819-2.068-.819h-6.974v17.833H3.568V10.724H.009v-1.04" fill="#fff"/></svg>