<?xml version="1.0" encoding="utf-8"?><svg width="34" height="44" fill="none" xmlns="http://www.w3.org/2000/svg" viewBox="0 0 34 44"><path d="M19.778 19.475c-1.314 1.424-3.588 1.525-5.003.203-1.415-1.322-1.516-3.611-.202-5.035s3.487-1.526 4.952-.254c1.466 1.322 1.617 3.56.304 5.035 0 .05-.051.05-.051.05zM18.11 4.827c.304.305.556.56.809.915a13.073 13.073 0 012.072 3.408c.859.152 1.718.203 2.577.203h.303c2.325-.203 4.498-1.271 6.115-2.95l.202-.203c-.303-.407-.657-.763-1.01-1.119-5.964-6.103-15.413-6.764-22.185-1.678C12.198.86 15.836 2.589 18.11 4.827zM6.033 22.221c.101-.407.202-.814.354-1.17a14.916 14.916 0 011.87-3.56 14.117 14.117 0 00-1.112-2.34L7.044 15c0-.05-.05-.102-.101-.102-1.365-1.933-3.336-3.306-5.61-3.865l-.303-.051c-.151.458-.354.966-.455 1.475-2.173 8.188 1.971 16.784 9.703 20.14-4.7-3.254-5.003-7.323-4.245-10.375zM27.055 24.051c-.404.102-.809.204-1.162.255-1.314.203-2.679.254-3.993.101-.555.662-1.06 1.374-1.415 2.137l-.05.152-.05.153c-.96 2.136-1.163 4.577-.506 6.815 0 .102.05.203.101.305.505-.102 1.01-.203 1.466-.305 8.135-2.238 13.442-10.121 12.43-18.513-.454 5.747-3.79 8.036-6.821 8.9z" fill="#fff"/><path d="M6.993 3.403a15.923 15.923 0 00-5.61 7.018c3.589.763 6.47 3.408 7.58 6.917.456-.305 1.921-1.424 2.881-4.577 1.163-3.815 3.386-6.612 6.266-7.833 0-.101-3.688-5.34-11.117-1.525zM18.666 30.867c0-2.543.96-5.035 2.679-6.917v-.05c-.354-.357-1.567-1.272-4.7-.56-3.84.915-8.136.762-10.612-1.12 0 0-2.678 5.799 4.295 10.376a16.47 16.47 0 008.844 1.424c-.354-1.017-.506-2.085-.506-3.153zM30.643 6.708a9.98 9.98 0 01-7.53 3.408c-.758 0-1.516-.102-2.223-.254h-.05c-.152.508-.253 2.034 1.869 4.323 2.678 2.95 4.75 6.713 4.346 9.816 0 0 6.316-.56 6.771-8.951-.252-3.001-1.364-5.9-3.183-8.342zM3.153 43.582h-.91V39.26h1.465c1.062 0 1.77.458 1.77 1.424 0 .967-.708 1.526-1.87 1.526h-.455v1.373zm0-2.187h.505c.556 0 .91-.203.91-.66 0-.459-.304-.662-.86-.662h-.505l-.05 1.322zM6.134 41.395c0-1.475.91-2.238 2.072-2.238 1.314 0 2.072.865 2.072 2.238 0 1.526-.91 2.238-2.072 2.238s-2.072-.763-2.072-2.238zm3.184 0c0-.966-.455-1.424-1.112-1.424s-1.061.458-1.061 1.424.505 1.424 1.162 1.424c.657 0 1.01-.407 1.01-1.424zM14.421 43.43c-.353.203-.757.254-1.162.254-1.111.101-2.072-.763-2.173-1.882v-.305c0-1.475.86-2.289 2.274-2.289.354 0 .758.05 1.062.203l-.203.763c-.252-.101-.505-.101-.758-.152-.758 0-1.364.61-1.364 1.373s.606 1.373 1.364 1.373c.253 0 .506-.102.758-.203l.203.864zM17.807 42.413h-1.819l-.404 1.17h-.556l1.617-4.324h.556l1.617 4.323h-.556l-.455-1.17zm-1.667-.509h1.465l-.707-2.034-.758 2.034zM20.688 43.582h-.556v-3.814h-1.264v-.509h3.083v.509h-1.263v3.814zM22.557 41.395c0-1.373.809-2.238 1.92-2.238 1.264 0 1.971.916 1.971 2.238 0 1.475-.808 2.238-1.92 2.238-1.111 0-1.97-.865-1.97-2.238zm3.285 0c0-1.17-.505-1.73-1.364-1.73-.758 0-1.365.56-1.365 1.73s.556 1.73 1.415 1.73c.86 0 1.314-.611 1.314-1.73zM31.805 43.582h-.556l-.252-3.407-1.112 3.407h-.556l-1.061-3.356-.253 3.356h-.556l.354-4.323h.657l1.162 3.713 1.162-3.713h.657l.354 4.323z" fill="#fff"/></svg>