<?xml version="1.0" encoding="utf-8"?><svg width="111" height="14" fill="none" xmlns="http://www.w3.org/2000/svg" viewBox="0 0 111 14"><path fill-rule="evenodd" clip-rule="evenodd" d="M36.233 10.438c-.064 1.028-.363 1.551-1.389 1.551l-.157.49h4.78l.14-.49c-.977 0-.93-.752-.883-1.458l.79-10.253c-.647.26-1.689.69-2.509.768l-6.325 9.239c-.505.737-1.183 1.55-2.145 1.704l-.157.49h3.643l.142-.49c-1.483 0-.852-1.044-.394-1.75l.805-1.197h3.754l-.096 1.396zm.52-7.076l-.378 4.804h-3.171l3.265-4.743.284-.06zm13.423 7.168c-.331 1.15-.773 1.504-2.035 1.504l-.158.445h5.726l.158-.445c-1.278.03-1.451-.414-1.152-1.504l2.381-8.073c.332-1.152.758-1.504 2.02-1.504l.094-.43h-9.354l-.158.43c1.515 0 1.136 1.074.773 2.01l-3.123 7.859c-.237.583-1.026 1.09-1.483 1.043-.473-.03-.915-.415-.931-.875-.031-.645.71-.906 1.01-.906 0-.553-.631-1.06-1.294-1.013-.662.045-1.388.675-1.388 1.55 0 1.09.852 2.088 2.082 2.088 1.215 0 2.445-.476 2.902-1.642l3.156-7.982c.551-1.396 1.34-2.026 2.224-1.995.789.015 1.088.798.899 1.474l-2.35 7.966zM68.71 3.9h.347l.946-3.377H59.64L58.536 3.9h.41c.71-1.443 2.84-2.81 4.481-2.855l-2.888 9.485c-.362 1.243-.93 1.459-2.254 1.459l-.095.49h6.23l.096-.49c-1.278 0-1.767-.2-1.388-1.459l2.838-9.485c1.64 0 2.745 1.32 2.745 2.855zm7.791-1.443c.3-1.028.726-1.503 1.91-1.503l.141-.43h-5.616l-.174.43c1.263 0 1.483.383 1.168 1.503l-2.35 8.074c-.41 1.458-2.082 1.504-2.082 1.504l-.095.445h5.615l.142-.445c-1.025 0-1.45-.384-1.088-1.412L80.398 3.7l-1.988 6.831c-.3 1.028-.772 1.504-1.956 1.504l-.095.445h5.63l.111-.445c-1.214 0-1.483-.369-1.168-1.504l2.398-8.074c.316-1.09.773-1.503 2.036-1.503l.157-.43h-5.63l-.142.43c.882 0 1.214.152 1.135.966v.246l-6.31 6.769 1.926-6.478zm15.064 0c.3-.998.505-1.458 1.688-1.503l.095-.43h-5.364l-.157.43c1.262 0 1.483.322 1.136 1.503l-2.382 8.074c-.3 1.074-.836 1.504-2.035 1.504l-.11.445h5.647l.142-.445c-1.23 0-1.341-.507-1.057-1.504l.946-3.131 1.01-.844 2.21 4.067a.935.935 0 01-.837 1.366l-.158.43h5.19l.141-.43c-.946-.093-1.214-.721-1.592-1.458l-2.92-5.633 3.14-2.64C97.04 1.644 97.703 1 98.743.954l.143-.43h-4.022l-.142.43c1.53 0 .569 1.197.032 1.627l-4.228 3.345 1.04-3.469zm15.112 7.981c-.064 1.014-.379 1.551-1.388 1.551l-.142.49h4.778l.143-.49c-1.025 0-.931-.737-.882-1.458l.788-10.253c-.71.307-1.687.69-2.493.768l-6.356 9.239c-.504.737-1.168 1.55-2.129 1.704l-.142.49h3.612l.158-.49c-1.53 0-.852-1.044-.395-1.75l.805-1.197h3.754l-.111 1.396zm.552-7.076l-.395 4.804h-3.155l3.25-4.743.3-.06zM22.336 6.125c1.246 0 2.381.63 2.381 1.904 0 2.025-1.735 3.775-3.738 3.775a.499.499 0 01-.473-.645l1.435-5.034h.395zM19.496.523l-.094.26c-1.105.4-2.272.722-3.423.66C13.487 1.353 11.12-.03 8.612 0 6.325.047 3.66 1.552 2.886 3.87 4.18 2.917 6.167 2.042 7.887 1.98c2.508-.077 4.858 1.289 7.367 1.35 1.608.031 3.738-.936 4.621-2.333.978.123.868.722.663 1.459l-2.382 8.073c-.331 1.15-.804 1.504-2.098 1.504l-.11.445h6.088c2.334 0 5.284-1.412 5.284-3.913 0-2.287-2.54-3.117-4.48-3.117h-.646l1.23-4.266h.647c2.35 0 3.549.43 4.227 2.656h.347L28.267.524h-8.77zM7.161 4.667c2.508-.03 4.874 1.35 7.382 1.443 1.404.061 2.808-.414 4.133-.936-.647 1.658-3.076 2.885-4.859 2.84-2.508-.062-4.874-1.428-7.366-1.367-1.736.046-3.613.906-5 1.904.726-2.272 3.36-3.838 5.71-3.884zM5.726 9.35c2.492-.031 4.858 1.35 7.366 1.442 1.404.062 2.807-.414 4.149-.936-.663 1.658-3.076 2.886-4.874 2.84-2.492-.062-4.874-1.443-7.367-1.366-1.75.062-3.612.906-5 1.903.741-2.273 3.36-3.838 5.726-3.883z" fill="#fff"/><path fill-rule="evenodd" clip-rule="evenodd" d="M29.402 13.278l-.41-.399h3.644l.41.399h-3.644zM110.59.692l.41.384-.71 9.5c-.015.368-.031.86.205 1.182-.551-.552-.726-.644-.662-1.38l.757-9.686zm-4.417 12.586l-.41-.399h4.779l.41.399h-4.779zm-.679-5.48l-.536-.154 1.435-2.132-.111 1.15-.788 1.136zm-2.744 3.898c-.695-.522.631-1.842.899-2.24h2.445v.384h-2.034c-.3.445-1.499 1.658-.884 2.271l-.426-.415zm-2.871 1.582l-.41-.399h3.628l.41.399h-3.628zm-6.514-.047l-.41-.399h5.188l.41.4h-5.188zm.757-11.45c-.806.078-1.105.323-1.42 1.091l-.3.997-.678.537.457-1.565c0 .015.3-1.366 1.688-1.474l.253.246.173.153c-.064 0-.126.016-.173.016zm0 3.684c-.064-.107-.111-.214-.174-.321l.174-.154 2.775-2.425c.647-.567 1.562-1.136 2.46-1.197l.411.398c-.868.062-1.734.599-2.366 1.122L94.563 5.39l3.107 6.17c-.362 0-.615-.353-.741-.63-.945-1.817-1.88-3.639-2.807-5.465zm-2.855 2.533l-.174.153-.868 3.023c-.046.17-.046.277-.046.476-.41-.03-.553-.322-.49-.598l1.01-3.3.284-.23.284.476zm-5.806 5.28l-.409-.399H90.7l.395.399h-5.633zm-3.06-1.673l-.504-.046c-.504 0-.126-1.136-.015-1.489l2.223-7.382c.3-1.06.9-1.32 1.988-1.32l.41.398c-.978 0-1.625.123-1.941 1.122l-2.223 7.382c-.064.26-.426 1.15.063 1.335zM77.529 3.27l-.852 2.655-.758.783 1.263-4.021a2.09 2.09 0 01.347-.752c.347-.446.868-.568 1.641-.568l.409.398c-.961 0-1.608.123-1.924 1.122l-.126.383zm0 5.525l-2.43 2.64c-.188 0-.599-.093-.41-.4l2.84-3.146 1.609-1.797-.426 1.428-1.183 1.275zm0 4.482h-.126l-.427-.399h5.632l.41.399h-5.49zm-7.099 0l-.41-.399h5.615l.41.399H70.43zm-.552-8.58h-.142l-.41-.384h.348l.205-.737.74-2.64.411.384-.946 3.377h-.206zM66.58 1.444l.41.399-2.602 8.871c-.079.277-.142.43-.046.721-.332-.061-.71-.138-.632-.43l2.87-9.561zm-7.365 11.834l-.41-.399h6.23l.41.399h-6.23zm.741-8.58l-.395-.384c.569-1.014 1.861-2.072 3.029-2.579l-.3.721a5.326 5.326 0 00-2.334 2.242zm-5.884 6.907l-.505-.046c-.52 0-.126-1.15-.016-1.489l2.209-7.382c.315-1.09.867-1.32 1.971-1.32l.41.398c-.946 0-1.624.123-1.924 1.122L54.01 10.27c-.11.399-.3.982.063 1.335zm-3.927 1.673h-1.136l-.41-.399h5.726l.41.399h-4.59zm-5.726-2.319c-.173.046-.316.139-.3.308-.157.03-.426-.046-.457-.23-.048-.368.3-.476.757-.537.048 0 .095-.015.142-.015l.41.415c-.095-.001-.347-.001-.552.06zm0 2.38c-.3-.03-.505-.077-.536-.093.157-.015.347-.045.536-.061.884-.138 1.94-.476 2.335-1.49l3.391-8.548.173-.43c.127-.353.837-1.304 1.388-1.229-.41.722-.694.876-1.183 2.15l-.378.967-2.729 6.998c-.647 1.66-2.16 1.797-2.997 1.736zM40.13.692l.41.384-.6 9.393c0 .307-.047.998.111 1.289-.599-.291-.646-.644-.599-1.38.173-3.24.425-6.463.677-9.686zM35.71 13.278l-.41-.399h4.78l.41.399h-4.78zm-.661-5.48l-.553-.154 1.451-2.132-.126 1.15-.773 1.136zm-2.745 3.898c-.6-.383.646-1.918.852-2.24h2.476v.384h-2.035c-.251.381-1.393 1.752-.89 2.233l-.403-.377zm-2.634-7.06l-.41-.384-.395-3.315.41.384.395 3.316zM26.437 2.41c-.332-.183-.695-.398-1.089-.414h-.915l-.835 2.978-.537-.031.978-3.331c1.293 0 1.546-.03 2.398.798zm-3.818 5.726l-.914 3.223c-.268 0-.49-.076-.442-.368l1.293-4.435h.063c.505 0 1.136.245 1.356.72-.141-.092-.836-.337-1.01-.337l-.346 1.197zm0 5.142c-.204.015-.425.015-.646.015l-4.969-.015-.441-.384h.441l4.89-.015c.237 0 .49-.015.726-.031 2.76-.184 5.363-1.474 5.363-4.62.11.277.268.753.363 1.151-.269 1.597-1.483 3.699-5.727 3.899zM5.111 12.142c2.113 0 4.748 1.289 6.877 1.305 1.183.015 2.84-.537 4.023-.86-.663.66-2.603 1.428-4.117 1.413-2.113 0-5.237-1.412-7.335-1.397-1.483 0-2.003.307-3.155.814.93-.953 2.382-1.275 3.707-1.275zm11.893-7.92c-.71.246-1.514.415-2.223.415-2.13 0-5.221-1.427-7.351-1.412-1.467 0-1.988.322-3.155.829.962-.983 2.414-1.275 3.723-1.275 2.13 0 4.748 1.29 6.877 1.305.632 0 1.389-.153 2.13-.353.679-.169 1.325-.368 1.893-.537-.364.353-1.074.736-1.894 1.028zm0 4.021c-.867.553-2.413 1.09-3.66 1.075-2.129 0-5.252-1.413-7.35-1.397-1.482 0-2.003.307-3.154.814.93-.952 2.397-1.274 3.707-1.274 2.129 0 4.747 1.288 6.893 1.305 1.025.015 2.445-.415 3.565-.737.158-.046.316-.093.458-.123-.128.107-.27.23-.459.337z" fill="#fff"/></svg>