<?xml version="1.0" encoding="utf-8"?><svg width="71" height="28" fill="none" xmlns="http://www.w3.org/2000/svg" viewBox="0 0 71 28"><path fill-rule="evenodd" clip-rule="evenodd" d="M5.276 7.252h3.738c.875 0 1.591-.053 2.413-.053 1.75 0 3.102-.053 4.72-.053 2.385 0 3.684-.132 5.116.982 1.14.902 1.617 2.945.822 4.271-.318.531-.769.77-1.034 1.194.292.292.743.478 1.14 1.088.822 1.22.716 2.945.027 3.927-.663.981-1.459 1.3-2.678 1.512-.981.186-1.644.186-2.651.186-.451 0-.849.053-1.379.053-4.136 0-6.496.053-10.685.053.053.16.372.477.53.663.345.372.69.743 1.088 1.061l.636.558c.61.53 1.644 1.06 2.36 1.432 1.007.504 2.942 1.008 4.056 1.008 2.174 0 3.5-.159 5.303-1.06 1.06-.531 2.015-1.115 2.863-1.964.371-.398.133-.08.69-.69.874-.982 1.908-2.706 2.28-3.927.158-.557.503-1.698.53-2.228.053-1.247.159-2.547-.186-3.794-.027-.133-.08-.239-.106-.398-.212-.929-.318-1.167-.742-2.096-.08-.186-.08-.212-.186-.372l-.636-1.034c-.106-.16-.133-.186-.239-.345-.265-.451-1.432-1.619-1.882-2.016-.955-.823-2.492-1.592-3.686-1.99-2.465-.823-5.117-.637-7.397.185-.45.16-.901.398-1.352.61-.08.054-.08.054-.185.107-1.114.61-2.652 1.777-3.367 2.865-.08.106-.133.265.079.265zm8.855 5.12l3.898-.052c.848 0 1.67-.16 1.67-1.22 0-.345-.16-.584-.318-.77-.212-.212-.477-.265-.875-.265H14.13v2.308zm.53 2.893h-.45v2.175l4.003-.053c2.307-.08 1.75-1.724 1.06-2.043-.689-.291-3.711-.08-4.613-.08zM12.806.062c-2.837.186-5.25.929-7.954 3.184-.16.133-.212.212-.398.345-.69.53-1.723 1.937-2.2 2.68-.557.822-1.67 3.077-1.67 3.98 1.564.159 6.018 0 8.033-.054h2.704v2.309c-2.36 0-4.693.132-7 .106H0v2.945c3.818 0 7.53-.107 11.374-.107v2.07c-1.882 0-10.34.027-10.738.239-.106.238.106.663.212.955.239.716.584 1.486.955 2.149.292.53.875 1.38 1.22 1.83.715.903 1.564 1.672 2.492 2.415.238.186.45.318.715.504 1.008.663 2.068 1.247 3.262 1.618.291.107.583.186.927.292 2.599.77 5.966.584 8.511-.371 1.564-.584 2.625-1.274 3.871-2.255.69-.558.583-.504 1.246-1.168l.318-.318c.106-.133.133-.186.265-.319.319-.318.796-1.034 1.06-1.406.982-1.459 1.777-3.475 2.069-5.226.159-.902.133-1.008.186-1.698.238-2.123-.319-4.829-1.167-6.607-.875-1.857-1.644-3.024-3.023-4.404-.212-.212-.397-.371-.636-.583-.133-.107-.212-.186-.345-.292-.106-.106-.212-.16-.318-.266-1.378-1.114-4.11-2.016-5.143-2.228-1.458-.319-2.068-.478-4.507-.319zM64.299 15.181h1.981c1.565 0 2.243.454 2.243 1.869 0 1.334-.678 1.815-3.025 1.815-.939 0-2.477-.133-3.285-.374l-.443 2.056c1.095.24 2.894.453 4.172.453C69.409 21 71 20.093 71 17.397c0-1.869-.548-3.123-2.842-3.23 2.164-.187 2.581-1.335 2.581-2.99C70.74 8.935 69.488 8 65.942 8c-1.408 0-3.051.24-4.12.454l.443 2.029c.756-.24 2.269-.4 3.207-.4 2.269 0 2.79.4 2.79 1.521 0 1.228-.521 1.602-2.086 1.602H64.3v1.975zm-11.29 1.041c-1.017-2.59-2.269-5.552-3.416-7.981h-3.155v12.466h2.216v-9.263c1.069 2.402 2.32 5.686 3.26 8.142h1.798c.991-2.456 2.295-5.66 3.39-8.142v9.29h2.243V8.24h-2.999c-1.095 2.402-2.373 5.392-3.337 7.981zm-11.995-2.109c2.19-.186 2.53-1.227 2.53-2.883 0-1.815-.548-2.99-3-2.99H34v12.467h6.649c1.956 0 3.155-.961 3.155-3.417 0-1.842-.47-3.07-2.79-3.177zm-4.72-3.87h3.755c.783 0 1.043.454 1.043 1.468 0 .934-.286 1.495-1.043 1.495h-3.728v-2.963h-.026zm0 4.912h3.781c.835 0 1.252.667 1.252 1.841 0 1.122-.339 1.762-1.173 1.762h-3.86v-3.603z" fill="#fff"/></svg>