<?xml version="1.0" encoding="utf-8"?><svg width="72" height="42" fill="none" xmlns="http://www.w3.org/2000/svg" viewBox="0 0 72 42"><path fill-rule="evenodd" clip-rule="evenodd" d="M6.118 26.567c-2.018-.934-2.13-2.093-2.018-3.98-.449-6.41 8.633-20.108 13.623-20.07 4.068.281 1.097 10.7-4.597 18.724l1.401 2.299c.43.551.58 1.467-.056 2.242l-1.626 1.514c.907 1.383 3.243 1.757 3.98 1.626 1.823-.393 2.103-1.822 2.019-2.523-.056-1.056-.364-2.027-.84-3.111l1.681-1.934.056 4.428c.785 3.794 3.588 1.393 5.55-1.093 2.093 4.373 4.354-.7 5.69-1.149 2.738 4.728 3.962-.411 5.859-1.065l-.477 2.102 2.327-.252c.944-.327.99-1.047 1.065-1.57l.449-2.018c.112-.57.56-.691 1.009.056 1.065 1.944 2.971 4.896 4.204 4.821 1.383-.243 2.037-4.017 3.056-5.438 2.476 4.299 3.803-.766 5.662-1.205 2.215 4.896 4.037-1.476 6.307-1.822 1.672 4.008 2.952 1.878 3.588 1.682l.204.068C52.45 31.13 42.17 26.635 37.82 27.536a2.405 2.405 0 00-2.466 1.514l-.897 1.906-20.687.729C2.502 32.32.37 38.337.484 42c2.86-6.335 22.313-5.438 30.273-5.382 1.906.13 2.13-1.476 2.691-2.298.449-1.103 1.234-2.654 1.85-2.803 20.566 1.026 26.55-8.136 30.224-13.657l1.169-1.705c.114-.155.226-.305.338-.448l-.194.239.559-.815.168-.337-2.299 1.402c-.486.131-1.028-.27-1.121-1.29-.264-2.396 3.702-5.88 5.71-8.65 2.364-3.258 1.079-6.56-.272-6.234-5.363 1.711-7.49 8.824-8.97 15.894-.41.392-1.215 1.766-2.579 1.345.3-2.616 1.047-5.512 2.075-8.185-1.122-.13-2.159.103-3.196.617l-.785 1.542c-.56-1.85-4.709-2.44-7.12 4.288L47.1 20.625c-.14.533-.757 1.205-1.682 1.177-1.158-.15-2.373-.944-2.97-2.466 4.166-.393 7.409-6.14 5.886-8.073-1.542-1.822-3.7 1.541-5.55 1.681l1.611-7.05c-1.102.085-2.443.127-3.013.996l-3.812 13.679c-.412.588-3.261 3.504-2.243 0l1.85-7.064-2.747.505c-.729.261-.897.747-1.009 1.289l-1.626 6.447c-.588.738-1.457 1.308-2.523 1.29l2.019-8.185c-1.028-.028-2.112.196-3.168.672l-.7 1.598c-.655-.598-1.841-2.149-3.869-.588l-6.11 5.998c-.888-.224-1.636-.729-1.99-1.682C28.131 8.357 22.59.714 19.348 1.06 8.485 2.576.248 15.416.007 21.634c-.205 4.84 4.102 5.391 6.111 4.933zm17.744-2.17c-1.514-1.552.673-6.074 2.186-6.167 1.907.093-1.065 7.082-2.186 6.166zm-9.699 2.915l1.177-1.205c.122.532.16.953-.084 1.43-.588.065-.869.018-1.093-.225zm27.414-9.026c-.326-1.953.748-3.85 2.467-4.037 1.953.785-1.28 4.457-2.467 4.037zm13.371-6.223c-.48 0-1.99.976-2.495 3.195-.504 2.22-.452 3.196.028 3.196.48 0 1.486-.248 2.383-2.635.897-2.387.564-3.756.084-3.756zm10.96-2.355c.715-2.71 2.289-5.475 4.317-7.96 1.42.803-2.037 5.923-4.317 7.96z" fill="#fff"/></svg>