<?xml version="1.0" encoding="utf-8"?><svg width="74" height="28" fill="none" xmlns="http://www.w3.org/2000/svg" viewBox="0 0 74 28"><path fill-rule="evenodd" clip-rule="evenodd" d="M26.966 9.714c.36.088.75.146 1.172.195.308-.74.617-1.472.915-2.213 1.038-2.565 2.046-5.11 3.115-7.694-1.234 0-2.262.078-3.115.215-.843.136-1.522.331-2.087.594-1.666.78-2.344 2.106-3.146 3.989-.38 2.7.535 4.29 3.146 4.914zm-2.642 7.548c.658-1.795 1.203-3.345 1.85-5.14.258-.02.525-.01.792-.02.082 0 .175-.009.267-.019.165-.419.586-1.326.761-1.745h-6.086c-.237.42-.421 1.17-.658 1.59.38 0 .987.02 1.367.02-.545 1.569-1.14 3.1-1.696 4.66-.072.215-.154.43-.226.654h3.63zM14.25 9.978c.894.02 1.789.058 2.663.02 1.48-.06 2.868-.362 4.01-1.405.75-.673 1.387-1.668 1.87-3.11.175-2.868-.617-4.262-1.87-4.925-.802-.42-1.81-.537-2.869-.556-.38.985-.76 1.98-1.14 2.974-.884 2.335-1.772 4.67-2.664 7.002z" fill="#fff"/><path fill-rule="evenodd" clip-rule="evenodd" d="M20.922 14.512c.04-.107.082-.225.123-.332.195-1.024.123-1.794-.123-2.38-.391-.906-1.235-1.326-2.221-1.462-.627 1.482-1.193 3.101-1.789 4.68a58.826 58.826 0 01-.873 2.244c.308 0 .596-.01.873-.03 2.046-.156 3.29-.887 4.01-2.72zM35.89 9.87c.884 0 1.706.02 2.477.01 2.714-.05 4.699-.527 5.84-4.008 1.162-3.94-1.008-5.87-4.163-5.87-.546 1.345-1.111 2.671-1.677 3.998-.843 1.95-1.686 3.89-2.477 5.87zm-8.924 4.827c-.35.858-.689 1.707-1.038 2.565h6.28c2.098-4.993 4.093-9.888 6.159-14.852.33-.8.668-1.6 1.008-2.408h-1.008c-1.82-.01-3.65.029-5.48 0-1.285 3.208-2.56 6.357-3.834 9.527a791.93 791.93 0 00-2.087 5.168zM16.912.85c.123-.283.247-.565.36-.848h-6.066c-2.405 5.802-4.76 11.458-7.155 17.26h6.179C12.584 11.772 14.599 6.33 16.912.85zm.884 9.488a13.1 13.1 0 00-.884-.039c-1.419.01-2.868.43-3.907 2.71-.884 2.897.309 4.018 2.097 4.253.627-1.473 1.213-3.13 1.81-4.71.28-.743.574-1.482.884-2.214zm22.606 0c-.616 1.492-1.346 3.209-2.035 4.837-.31.718-.612 1.44-.905 2.165.289-.039.587-.049.905-.058 1.255-.03 2.694-.088 4.195-2.536.513-3.023-.411-4.33-2.16-4.408zm22.824 1.18h1.212c-.698 1.804-1.202 3.784-1.89 5.597l-.062.147h3.731c.75-1.823 1.039-3.832 1.8-5.656.308 0 1.048-.01 1.356-.01.237-.39.33-.867.566-1.258h-6.22c-.103.39-.39.79-.493 1.18zm-.627-1.18h-.052c-1.12.03-2.293-.039-3.403 0-.453 1.102-.792 2.33-1.234 3.442h-1.192c-.073.39-.493 1.141-.555 1.532l.77.01h.38c-.102.36-.245.75-.38 1.13a9.254 9.254 0 00-.267.81h3.825c.699-2.224 1.347-4.525 2.056-6.748.01-.059.031-.117.052-.176zM62.547.353h-13.23c-.576 1.365-1.182 2.73-1.769 4.095-.7 1.61-1.387 3.199-1.995 4.75H70.31C71.439 6.3 72.859 3.248 74 .352H62.547zm-4.842 9.985h-3.968c-.679 1.892-1.398 3.998-2.087 5.958-.113.332-.226.644-.339.966h3.814c.545-1.492 1.203-3.209 1.81-4.847.266-.721.534-1.423.77-2.077zm-30.739 8.386H3.536L0 27.404h25.876l1.09-2.527 2.087-4.875.545-1.277h-2.632zm24.684-4.68c.452-1.22.452-2.155 0-2.79-.39-.536-1.121-.857-2.19-.965-.535 1.453-1.254 2.985-1.912 4.486a45.255 45.255 0 00-.997 2.409c.329.039.668.058.997.068 1.634.01 3.238-.546 4.08-3.16.012-.01.012-.029.022-.048zm-12.388-3.706c-.288 0-.597.01-.895.01-.905-.01-1.83-.04-2.693-.01-1.686 4.067-3.372 8.59-5.048 12.667 1.131.059 2.365-.02 3.496.04 1.418-3.433 2.837-7.012 4.245-10.503.298-.741.596-1.472.895-2.204zm9.273.049a6.826 6.826 0 00-.987-.049c-2.159.04-3.752 1.063-4.174 3.072-.535 2.399.453 4.203 2.426 3.852.566-1.434 1.162-2.915 1.748-4.388.329-.839.668-1.678.987-2.487z" fill="#fff"/></svg>