<?xml version="1.0" encoding="utf-8"?><svg width="16" height="16" fill="none" xmlns="http://www.w3.org/2000/svg" viewBox="0 0 16 16"><path fill-rule="evenodd" clip-rule="evenodd" d="M6.636 7.478a4.022 4.022 0 01-.57.474 10.371 10.371 0 001.982 1.981 4 4 0 016.13-.57c.926.926 1.346 2.199 1.175 3.402-.014-.003.015.002 0 0l-.463 2.626c-4.164-.735-7.403-2.113-9.786-4.495C2.722 8.513 1.344 5.274.61 1.11L3.235.647c-.002-.015.003.014 0 0C4.438.476 5.711.896 6.636 1.82a4 4 0 010 5.657zM3.847 3.317c.246.845.53 1.617.853 2.324a1.333 1.333 0 00-.853-2.324zm8.836 8.836a1.333 1.333 0 00-2.324-.853c.707.323 1.479.607 2.324.853z" fill="#fff"/></svg>