<?xml version="1.0" encoding="utf-8"?><svg width="132" height="125" fill="none" xmlns="http://www.w3.org/2000/svg" viewBox="0 0 132 125"><path d="M23.304 38.277l-4.513 5.975 7.386 5.579.979-1.297-6.265-4.733 2.554-3.381 6.265 4.732.98-1.296-7.386-5.58zM29.819 31.74c-2.242 1.734-2.234 4.423-.572 6.572 1.766 2.283 4.386 2.739 6.484 1.116 2.087-1.614 2.316-4.272.55-6.555-1.757-2.273-4.395-2.73-6.462-1.132zm.814 1.096c1.358-1.05 3.049-.648 4.345 1.028 1.296 1.677 1.275 3.435-.062 4.469-1.378 1.065-3.069.664-4.389-1.043-1.28-1.656-1.241-3.412.106-4.454zM47.5 28.686c.705 2.142-.152 4.116-2.29 5.002-2.414 1-4.735-.121-5.855-2.824-1.005-2.425-.374-5.08 2.22-6.154 1.706-.707 3.68-.427 4.789 1.436l-1.49.617c-.632-.949-1.69-1.228-2.795-.77-1.801.746-1.862 2.671-1.21 4.245.656 1.585 2.025 2.918 3.85 2.162 1.393-.578 1.647-1.766 1.28-3.092l1.502-.622zM59.447 20.757l-2.246.27-1.612 7.488-3.434-6.88-2.259.273 1.107 9.19 1.523-.184-.854-7.086 3.474 6.77 1.317-.159 1.701-7.393.854 7.086 1.536-.185-1.107-9.19zM68.666 21.227c2.576.438 4.026 2.689 3.545 5.521-.484 2.845-2.594 4.478-5.196 4.036-2.615-.445-4.054-2.68-3.57-5.526.455-2.678 2.427-4.506 5.22-4.03zm-.254 1.341c-1.68-.285-2.998.875-3.348 2.939-.362 2.127.488 3.643 2.205 3.935 1.666.284 2.974-.892 3.33-2.981.354-2.09-.496-3.605-2.188-3.893zM84.05 26.382l-.577 1.28-2.69-1.212-3.227 7.158-1.481-.667 3.226-7.159-2.69-1.212.576-1.28 6.862 3.092zM88.43 28.835l-5.635 7.343 1.29.99 2.168-2.826 2.073 1.59c1.485 1.14 3.063.942 4.131-.45 1.18-1.537.676-3.038-.84-4.201l-3.187-2.446zm.466 2.062l1.681 1.29c.815.626 1.326 1.411.598 2.36-.665.866-1.493.771-2.328.13L87.052 33.3l1.844-2.403zM101.452 41.273l-1.057.863-3.198-3.918-1.903 1.553 2.967 3.636-1.017.83-2.968-3.636-2.115 1.727 3.247 3.978-1.078.88-4.266-5.228 7.172-5.852 4.216 5.167zM107.071 51.194l-1.261.616-1.296-2.65-7.054 3.45-.714-1.46 7.054-3.45-1.297-2.651 1.261-.617 3.307 6.761zM104.214 64.185c1.774-.407 2.522-1.739 2.069-3.716l-.552-2.407 3.446-.79-.363-1.584-9.022 2.069.916 3.991c.45 1.964 1.72 2.847 3.506 2.437zm-.401-1.575c-.976.224-1.589-.183-1.827-1.222l-.538-2.344 2.99-.686.532 2.32c.227.988-.207 1.714-1.157 1.932z" fill="#CBCECF"/><path d="M111.13 72.702l-.552 4.189c-.261 1.984-1.333 2.853-2.699 2.673a2.085 2.085 0 01-1.76-1.57c-.395 1.01-1.272 1.59-2.457 1.434-1.624-.213-2.551-1.542-2.325-3.256l.616-4.679 9.177 1.209zm-1.509 1.4l-2.526-.332-.289 2.191c-.158 1.199.098 1.849 1.026 1.97 1.147.152 1.373-.67 1.494-1.586l.295-2.242zm-3.686-.485l-2.874-.378-.318 2.41c-.142 1.083-.003 2.019 1.169 2.173 1.264.167 1.571-.776 1.709-1.82l.314-2.385zM100.468 81.615l8.579 3.475-.611 1.506-6.578-2.665 5.085 6.352-.708 1.747-8.579-3.475.61-1.506 6.579 2.665-5.085-6.352.708-1.747zM89.601 96.495l.939-1.262 1.846 1.372 3.6-4.84-1.848-1.374.939-1.262 2.973 2.21-.535.72c.583 1.308 2.388 3.282 4.433 4.802l1.148.853-3.599 4.841-6.302-4.684-.62.834-2.974-2.21zm4.564.072l5.175 3.846 1.683-2.264-.449-.333c-1.847-1.373-3.51-3.21-4.098-4.359l-2.311 3.11zM90.8 110.758l-.867-1.054 3.906-3.212-1.56-1.898-3.626 2.981-.834-1.014 3.625-2.981-1.734-2.109-3.966 3.262-.883-1.074 5.21-4.286 5.88 7.149-5.151 4.236zM83.377 115.47c-2.368 1.105-4.84.079-6.055-2.525-1.22-2.615-.413-5.158 1.978-6.274 2.403-1.121 4.86-.101 6.08 2.514 1.148 2.462.566 5.087-2.003 6.285zm-.553-1.248c1.543-.72 1.967-2.424 1.082-4.321-.912-1.955-2.474-2.719-4.052-1.982-1.532.715-1.939 2.425-1.043 4.345.896 1.921 2.458 2.684 4.013 1.958z" fill="#FF3E41"/></svg>