<?xml version="1.0" encoding="utf-8"?><svg width="20" height="20" fill="none" xmlns="http://www.w3.org/2000/svg" viewBox="0 0 20 20"><path fill-rule="evenodd" clip-rule="evenodd" d="M10 .667a9.333 9.333 0 00-3.59 17.95 9.3 9.3 0 003.692.716 9.3 9.3 0 003.489-.715A9.333 9.333 0 0010 .667zm1.245 10.666A9.934 9.934 0 0110 14.993a9.935 9.935 0 01-1.245-3.66h2.49zm2.686 0a12.586 12.586 0 01-1.57 4.904 6.678 6.678 0 004.172-4.904h-2.602zm2.602-2.666h-2.602a12.586 12.586 0 00-1.57-4.904 6.678 6.678 0 014.172 4.904zm-5.288 0h-2.49A9.934 9.934 0 0110 5.007a9.934 9.934 0 011.245 3.66zm-5.176 0a12.585 12.585 0 011.57-4.904 6.678 6.678 0 00-4.172 4.904h2.602zm-2.602 2.666a6.678 6.678 0 004.172 4.904 12.585 12.585 0 01-1.57-4.904H3.467z" fill="#CBCECF"/></svg>