<?xml version="1.0" encoding="utf-8"?><svg width="18" height="16" fill="none" xmlns="http://www.w3.org/2000/svg" viewBox="0 0 18 16"><path d="M13.167.917H4.833c-2.5 0-4.166 1.25-4.166 4.166v5.833c0 2.917 1.666 4.167 4.166 4.167h8.334c2.5 0 4.166-1.25 4.166-4.167V5.083c0-2.917-1.666-4.166-4.166-4.166zm.391 5.075L10.95 8.075c-.55.442-1.25.658-1.95.658s-1.408-.216-1.95-.658L4.442 5.992a.641.641 0 01-.1-.884.623.623 0 01.875-.1l2.608 2.083c.633.509 1.708.509 2.342 0l2.608-2.083a.615.615 0 01.875.1.632.632 0 01-.092.884z" fill="#fff"/></svg>