<?xml version="1.0" encoding="utf-8"?><svg width="20" height="20" fill="none" xmlns="http://www.w3.org/2000/svg" viewBox="0 0 20 20"><path d="M14.167 1.667H5.833c-2.3 0-4.166 1.858-4.166 4.15v5.816c0 2.292 1.866 4.15 4.166 4.15h1.25c.225 0 .525.15.667.334L9 17.775c.55.733 1.45.733 2 0l1.25-1.658a.845.845 0 01.667-.334h1.25c2.3 0 4.166-1.858 4.166-4.15V5.817c0-2.292-1.866-4.15-4.166-4.15zM6.667 10a.83.83 0 01-.834-.833c0-.459.375-.834.834-.834.458 0 .833.375.833.834a.83.83 0 01-.833.833zM10 10a.83.83 0 01-.833-.833c0-.459.375-.834.833-.834.458 0 .833.375.833.834A.83.83 0 0110 10zm3.333 0a.83.83 0 01-.833-.833c0-.459.375-.834.833-.834.459 0 .834.375.834.834a.83.83 0 01-.834.833z" fill="#fff"/></svg>