<?xml version="1.0" encoding="utf-8"?><svg width="11" height="19" fill="none" xmlns="http://www.w3.org/2000/svg" viewBox="0 0 11 19"><path d="M7.143 13.077a8.788 8.788 0 002.717-1.12c.64-.402.833-1.244.43-1.881a1.373 1.373 0 00-1.89-.43 5.963 5.963 0 01-6.3 0 1.372 1.372 0 00-1.889.43 1.36 1.36 0 00.43 1.881 8.802 8.802 0 002.716 1.12L.74 15.68a1.36 1.36 0 000 1.929c.269.266.619.4.97.4.35 0 .702-.134.97-.4L5.25 15.05l2.57 2.559a1.374 1.374 0 001.938 0 1.359 1.359 0 000-1.93l-2.615-2.603zM9.902 4.652c0 2.565-2.101 4.652-4.685 4.652C2.633 9.304.53 7.217.53 4.652S2.633 0 5.217 0s4.685 2.087 4.685 4.652zm-2.745 0c0-1.062-.87-1.926-1.94-1.926-1.07 0-1.94.864-1.94 1.926 0 1.062.87 1.926 1.94 1.926 1.07 0 1.94-.864 1.94-1.926z" fill="#fff"/></svg>