<?xml version="1.0" encoding="utf-8"?><svg width="18" height="18" fill="none" xmlns="http://www.w3.org/2000/svg" viewBox="0 0 18 18"><path fill-rule="evenodd" clip-rule="evenodd" d="M7.55 8.47c-.2.2-.414.378-.64.532a11.643 11.643 0 002.225 2.225 4.49 4.49 0 016.882-.64c1.038 1.039 1.51 2.468 1.318 3.818-.016-.003.016.003 0 0l-.52 2.948c-4.674-.825-8.31-2.372-10.985-5.046C3.156 9.633 1.61 5.997.784 1.322l2.948-.52c-.003-.016.003.016 0 0 1.35-.191 2.78.28 3.818 1.319a4.49 4.49 0 010 6.35zM4.42 3.8c.275.948.594 1.815.956 2.608A1.497 1.497 0 004.42 3.8zm9.918 9.918a1.497 1.497 0 00-2.609-.957c.793.363 1.66.681 2.609.957z" fill="#fff"/></svg>