<?xml version="1.0" encoding="utf-8"?><svg width="56" height="47" fill="none" xmlns="http://www.w3.org/2000/svg" viewBox="0 0 56 47"><path d="M0 10C0 4.477 4.477 0 10 0h36c5.523 0 10 4.477 10 10v15.81c0 5.522-4.477 10-10 10h-8.806a2 2 0 00-1.615.82l-5.922 8.103a2 2 0 01-3.258-.04l-5.57-8.024a2 2 0 00-1.643-.86H10c-5.523 0-10-4.477-10-10V10z" fill="#FF3E41"/><g clip-path="url(#cfclip0_776_725)"><path fill-rule="evenodd" clip-rule="evenodd" d="M8 26.235h3.996v-9.328l5.53 9.556c1.842-3.172 3.695-6.374 5.538-9.558v9.33h14.83l-1.857-3.115h-8.976v-3.47h7.072l-1.857-3.116h-5.215v-3.386h3.37l-1.857-3.116c-1.836 0-3.647-.032-5.51-.032l-5.534 9.846L11.997 10H8v16.235zm40.37-16.203H29.28l1.856 3.116h5.774v9.972l1.995 3.343 2.001-3.343v-9.972h5.607l1.857-3.116z" fill="#fff"/></g><defs><clipPath id="cfclip0_776_725"><path fill="#fff" transform="translate(8 10)" d="M0 0h40.37v16.463H0z"/></clipPath></defs></svg>