<?xml version="1.0" encoding="utf-8"?><svg width="115" height="108" fill="none" xmlns="http://www.w3.org/2000/svg" viewBox="0 0 115 108"><g clip-path="url(#cdclip0_1197_4056)" fill="#CBCECF"><path fill-rule="evenodd" clip-rule="evenodd" d="M73.595 38.398l-2.344.9c-3.247 1.115-8.07 1.13-11.148-.315-3.564-1.675-6.112-6.654-2.102-9.906 2.773-2.25 6.614-2.822 10.175-2.713 3.766.115 4.653 1.102 5.161 1.098l-.01-4.482c-1.945-.96-4.922-1.994-7.073-2.486-6.134-1.316-9.263-1.452-15.748-.76-2.662.285-6.347 1.638-8.558 3.162-4.586 3.159-6.74 9.1-4.471 14.304 3.213 7.367 11.99 9.805 19.354 9.787 4.378-.01 12.57-1.262 16.73-3.746l.034-4.843z"/><path d="M62.069 1.794l.17.105c9.21 5.708 16.309 10.108 24.16 17.244l.027.027c.24.24.48.474.703.693 2.724 2.673 3.44 3.376 2.444 8.553l-.055.227c-2.544 10.59-4.506 18.752-8.817 28.475l-.015.033c-.16.32-.304.613-.439.89-1.683 3.435-2.124 4.338-7.323 4.984l-.233.019c-10.782.835-19.093 1.478-29.61.352l-.032-.003c-.452-.07-.723-.11-.976-.146-3.764-.55-4.753-.694-6.97-5.475l-.09-.218c-4.122-10.074-7.3-17.839-9.485-28.256l-.005-.032-.165-.98c-.644-3.774-.813-4.766 3.017-8.367l.026-.02.152-.13c8.239-7.062 14.59-12.505 23.75-17.817l.029-.017c.291-.152.592-.311.873-.46 3.363-1.782 4.247-2.25 8.83.305l.033.015zm-.622 1.403l-.17-.106.001-.002c-3.842-2.138-4.58-1.747-7.37-.27-.266.142-.55.292-.885.466-9.028 5.239-15.327 10.636-23.495 17.637l-.126.108.002.001c-3.232 3.04-3.092 3.864-2.557 6.998.042.249.088.518.162.972 2.157 10.275 5.31 17.98 9.4 27.975l.071.176c1.864 4.012 2.688 4.133 5.807 4.588.358.053.742.109.987.147 10.355 1.105 18.605.467 29.305-.362l.166-.012c4.387-.546 4.755-1.296 6.15-4.145.137-.282.285-.582.442-.896 4.247-9.584 6.192-17.682 8.716-28.186l.038-.156c.841-4.376.247-4.96-2.014-7.178-.212-.208-.438-.43-.688-.679-7.742-7.037-14.794-11.407-23.942-17.076z"/><path fill-rule="evenodd" clip-rule="evenodd" d="M68.965 28.95h9.453v3.124h-2.245v4.76H71.21v-4.76h-2.245V28.95z" stroke="#CBCECF" stroke-width=".756" stroke-miterlimit="22.926"/></g><path d="M6.336 102.66H4.992c-.144.912-.684 1.416-1.5 1.416-1.044 0-1.656-.816-1.656-2.184 0-1.38.648-2.22 1.704-2.22.744 0 1.236.432 1.392 1.212h1.356c-.156-1.428-1.176-2.268-2.76-2.268-1.884 0-3.084 1.308-3.084 3.348 0 1.872 1.164 3.192 3.048 3.192 1.548 0 2.652-.972 2.844-2.496zm2.36-3.852H7.412v8.484h1.356v-3.108c.492.684 1.176.972 2.016.972 1.668 0 2.748-1.272 2.748-3.228 0-2.004-1.104-3.3-2.82-3.3-.804 0-1.584.312-2.016 1.008v-.828zm1.74.924c1.056 0 1.716.852 1.716 2.196 0 1.32-.648 2.136-1.692 2.136-1.092 0-1.74-.816-1.74-2.16 0-1.356.636-2.172 1.716-2.172zm9.832 3.336H18.96c-.276.792-.72 1.128-1.476 1.128-1.056 0-1.668-.708-1.704-1.956h4.572v-.144c0-2.136-1.128-3.468-2.94-3.468-1.74 0-3 1.404-3 3.348 0 1.848 1.14 3.228 3.048 3.228 1.392 0 2.496-.78 2.808-2.136zm-1.284-1.74h-3.18c.132-1.092.696-1.68 1.596-1.68.9 0 1.5.636 1.584 1.68zm8.627 5.64v-3.048h-.828v-5.112h-4.656v.696c0 2.04-.276 3.348-.732 4.416h-.78v3.048h1.296V105h4.404v1.968h1.296zm-2.172-3.048H22.8c.252-.612.636-2.208.636-3.636v-.42h2.004v4.056zm8.624-1.26h-1.344c-.144.912-.684 1.416-1.5 1.416-1.044 0-1.656-.816-1.656-2.184 0-1.38.648-2.22 1.704-2.22.744 0 1.236.432 1.392 1.212h1.356c-.156-1.428-1.176-2.268-2.76-2.268-1.884 0-3.084 1.308-3.084 3.348 0 1.872 1.164 3.192 3.048 3.192 1.548 0 2.652-.972 2.844-2.496zm5.699-2.772v-1.08h-5.448v1.08h2.04V105h1.368v-5.112h2.04zm6.31 3.36c0-.828-.384-1.392-1.164-1.596v-.024c.588-.276.888-.624.888-1.308 0-.96-.684-1.512-1.836-1.512h-3.42V105h3.252c1.464 0 2.28-.636 2.28-1.752zm-2.28-.984c.6 0 .924.324.924.864 0 .552-.324.84-.924.84h-1.884v-1.704h1.884zm-.18-2.424c.564 0 .828.204.828.684 0 .48-.288.744-.792.744h-1.74V99.84h1.704zm8.664 5.16l2.316-4.512h.036V105h1.368v-6.192h-1.728l-2.316 4.512h-.036v-4.512h-1.368V105h1.728zm10.227-1.836c0-.96-.624-1.428-1.2-1.536v-.024c.504-.108.996-.6.996-1.308 0-1.212-1.08-1.668-2.352-1.668-1.248 0-2.556.396-2.7 1.968h1.38c.12-.54.456-.924 1.188-.924.804 0 1.128.324 1.128.78 0 .624-.516.816-1.236.816h-.552v1.008h.768c.948 0 1.212.396 1.212.912 0 .588-.516.924-1.284.924-.6 0-1.284-.192-1.404-1.044h-1.38c.06 1.284.996 2.1 2.796 2.1 1.308 0 2.64-.66 2.64-2.004zM64.98 105v-4.116h.024L66.481 105h1.38l1.476-4.116h.024V105h1.32v-6.192h-1.8l-1.668 4.92h-.024l-1.728-4.92h-1.8V105h1.32zm12.674-1.932h-1.308c-.276.792-.72 1.128-1.476 1.128-1.056 0-1.668-.708-1.704-1.956h4.572v-.144c0-2.136-1.128-3.468-2.94-3.468-1.74 0-3 1.404-3 3.348 0 1.848 1.14 3.228 3.048 3.228 1.392 0 2.496-.78 2.808-2.136zm-1.284-1.74h-3.18c.132-1.092.696-1.68 1.596-1.68.9 0 1.5.636 1.584 1.68zm3.716-2.52h-1.284v8.484h1.356v-3.108c.492.684 1.176.972 2.016.972 1.668 0 2.748-1.272 2.748-3.228 0-2.004-1.104-3.3-2.82-3.3-.804 0-1.584.312-2.016 1.008v-.828zm1.74.924c1.056 0 1.716.852 1.716 2.196 0 1.32-.648 2.136-1.692 2.136-1.092 0-1.74-.816-1.74-2.16 0-1.356.636-2.172 1.716-2.172zm9.832 3.336H90.35c-.275.792-.72 1.128-1.475 1.128-1.056 0-1.668-.708-1.704-1.956h4.572v-.144c0-2.136-1.128-3.468-2.94-3.468-1.74 0-3 1.404-3 3.348 0 1.848 1.14 3.228 3.047 3.228 1.393 0 2.497-.78 2.809-2.136zm-1.285-1.74h-3.18c.132-1.092.697-1.68 1.596-1.68.9 0 1.5.636 1.584 1.68zM94.15 105v-2.688h2.712V105h1.369v-6.192h-1.368v2.424H94.15v-2.424h-1.368V105h1.368zm7.251 0l2.316-4.512h.036V105h1.368v-6.192h-1.728l-2.316 4.512h-.036v-4.512h-1.368V105h1.728zm9.855-8.748h-.696c-.156.624-.552.912-1.272.912s-1.116-.288-1.272-.912h-.696c.12 1.152.744 1.692 1.968 1.692s1.848-.54 1.968-1.692zM108.292 105l2.316-4.512h.036V105h1.368v-6.192h-1.728l-2.316 4.512h-.036v-4.512h-1.368V105h1.728zM10.17 78.184v2.394H4.05V91H1.242V78.184h8.928zm7.744-.306c1.872 0 3.384.624 4.536 1.872 1.164 1.236 1.746 2.856 1.746 4.86 0 2.004-.582 3.624-1.746 4.86-1.152 1.224-2.67 1.836-4.554 1.836-1.896 0-3.426-.612-4.59-1.836-1.164-1.236-1.746-2.856-1.746-4.86 0-2.028.576-3.654 1.728-4.878 1.164-1.236 2.706-1.854 4.626-1.854zm-.036 2.304c-1.056 0-1.902.396-2.538 1.188-.624.792-.936 1.854-.936 3.186 0 1.38.312 2.46.936 3.24.624.78 1.482 1.176 2.574 1.188 1.068 0 1.908-.396 2.52-1.188.612-.792.918-1.872.918-3.24 0-1.344-.312-2.406-.936-3.186-.624-.792-1.47-1.188-2.538-1.188zm20.238 5.868c-.144 1.608-.708 2.886-1.692 3.834s-2.334 1.422-4.05 1.422c-1.86 0-3.36-.612-4.5-1.836-1.128-1.236-1.692-2.868-1.692-4.896 0-1.92.57-3.516 1.71-4.788 1.152-1.272 2.682-1.908 4.59-1.908 1.524 0 2.802.432 3.834 1.296 1.032.864 1.602 1.962 1.71 3.294h-2.754c-.144-.708-.468-1.254-.972-1.638-.492-.396-1.116-.594-1.872-.594-.78 0-1.44.222-1.98.666a3.48 3.48 0 00-1.116 1.602 6.457 6.457 0 00-.324 2.088c0 1.32.306 2.376.918 3.168.612.78 1.434 1.17 2.466 1.17 1.716 0 2.694-.96 2.934-2.88h2.79zm2.452-7.866h5.526c1.44 0 2.58.348 3.42 1.044.851.684 1.277 1.71 1.277 3.078 0 1.344-.42 2.364-1.26 3.06-.84.684-1.938 1.026-3.294 1.026h-2.88V91h-2.79V78.184zm2.79 2.304v3.69h2.502c1.464 0 2.196-.612 2.196-1.836 0-1.236-.726-1.854-2.178-1.854h-2.52zm19.35-2.304v2.304h-6.823v2.79h6.264v2.214h-6.264v3.15h6.948V91h-9.738V78.184h9.612zm12.211 0v2.304h-6.822v2.79h6.264v2.214h-6.264v3.15h6.948V91h-9.738V78.184h9.612zm14.048 7.866c-.144 1.608-.708 2.886-1.692 3.834s-2.334 1.422-4.05 1.422c-1.86 0-3.36-.612-4.5-1.836-1.128-1.236-1.692-2.868-1.692-4.896 0-1.92.57-3.516 1.71-4.788 1.152-1.272 2.682-1.908 4.59-1.908 1.524 0 2.802.432 3.834 1.296 1.032.864 1.602 1.962 1.71 3.294h-2.754c-.144-.708-.468-1.254-.972-1.638-.492-.396-1.116-.594-1.872-.594-.78 0-1.44.222-1.98.666a3.48 3.48 0 00-1.116 1.602 6.457 6.457 0 00-.324 2.088c0 1.32.306 2.376.918 3.168.612.78 1.434 1.17 2.466 1.17 1.716 0 2.694-.96 2.934-2.88h2.79zm11.639-7.866v2.394h-3.852V91h-2.826V80.578h-3.852v-2.394h10.53zm2.04 0h5.526c1.44 0 2.58.348 3.42 1.044.852.684 1.278 1.71 1.278 3.078 0 1.344-.42 2.364-1.26 3.06-.84.684-1.938 1.026-3.294 1.026h-2.88V91h-2.79V78.184zm2.79 2.304v3.69h2.502c1.464 0 2.196-.612 2.196-1.836 0-1.236-.726-1.854-2.178-1.854h-2.52z" fill="#CBCECF"/><defs><clipPath id="cdclip0_1197_4056"><path fill="#fff" transform="translate(25)" d="M0 0h65v64H0z"/></clipPath></defs></svg>