<?xml version="1.0" encoding="utf-8"?><svg width="20" height="20" fill="none" xmlns="http://www.w3.org/2000/svg" viewBox="0 0 20 20"><path d="M14.167 2.917H5.833c-2.5 0-4.166 1.25-4.166 4.166v5.834c0 2.916 1.666 4.166 4.166 4.166h8.334c2.5 0 4.166-1.25 4.166-4.166V7.083c0-2.916-1.666-4.166-4.166-4.166zm.391 5.075l-2.608 2.083c-.55.442-1.25.658-1.95.658s-1.408-.216-1.95-.658L5.442 7.992a.641.641 0 01-.1-.884.623.623 0 01.875-.1l2.608 2.084c.633.508 1.708.508 2.342 0l2.608-2.084a.615.615 0 01.875.1.632.632 0 01-.092.884z" fill="#fff"/></svg>