<?xml version="1.0" encoding="utf-8"?><svg width="16" height="13" fill="none" xmlns="http://www.w3.org/2000/svg" viewBox="0 0 16 13"><path fill-rule="evenodd" clip-rule="evenodd" d="M1.358 5.529c4.134-1.801 6.891-2.989 8.27-3.563C13.569.328 14.387.044 14.919.034c.118-.002.38.027.55.165a.598.598 0 01.202.384 2.5 2.5 0 01.024.559c-.213 2.242-1.137 7.684-1.607 10.196-.199 1.062-.59 1.419-.969 1.454-.824.075-1.449-.545-2.247-1.068-1.248-.818-1.953-1.327-3.165-2.126-1.4-.922-.492-1.43.306-2.258.209-.217 3.838-3.518 3.908-3.817.008-.038.017-.177-.066-.25-.083-.075-.206-.05-.294-.03-.125.03-2.12 1.347-5.982 3.955-.566.388-1.079.578-1.538.568-.506-.011-1.48-.287-2.204-.522C.947 6.955.242 6.803.303 6.312c.032-.255.384-.516 1.055-.783z" fill="#fff"/></svg>