<?xml version="1.0" encoding="utf-8"?><svg width="18" height="18" fill="none" xmlns="http://www.w3.org/2000/svg" viewBox="0 0 18 18"><path d="M0 18l1.272-4.62A8.833 8.833 0 01.077 8.92C.077 3.999 4.1 0 9.04 0c2.398 0 4.65.928 6.34 2.614A8.823 8.823 0 0118 8.923c0 4.92-4.023 8.919-8.966 8.919H9.03c-1.5 0-2.974-.377-4.285-1.087L0 18zm4.973-2.857l.27.162a7.497 7.497 0 003.791 1.035h.005c4.104 0 7.448-3.323 7.448-7.413a7.36 7.36 0 00-2.179-5.244 7.41 7.41 0 00-5.27-2.173C4.935 1.506 1.59 4.83 1.59 8.919c0 1.399.391 2.763 1.14 3.944l.175.282-.752 2.733 2.82-.735z" fill="#fff"/><path d="M0 18l1.272-4.62A8.833 8.833 0 01.077 8.92C.077 3.999 4.1 0 9.04 0c2.398 0 4.65.928 6.34 2.614A8.823 8.823 0 0118 8.923c0 4.92-4.023 8.919-8.966 8.919H9.03c-1.5 0-2.974-.377-4.285-1.087L0 18zm4.973-2.857l.27.162a7.497 7.497 0 003.791 1.035h.005c4.104 0 7.448-3.323 7.448-7.413a7.36 7.36 0 00-2.179-5.244 7.41 7.41 0 00-5.27-2.173C4.935 1.506 1.59 4.83 1.59 8.919c0 1.399.391 2.763 1.14 3.944l.175.282-.752 2.733 2.82-.735z" fill="#fff"/><path fill-rule="evenodd" clip-rule="evenodd" d="M6.8 5.189c-.168-.372-.344-.381-.504-.385-.128-.005-.279-.005-.43-.005a.826.826 0 00-.597.278c-.206.223-.782.762-.782 1.861 0 1.095.804 2.156.916 2.306.111.15 1.551 2.472 3.825 3.366 1.89.745 2.278.595 2.686.556.408-.038 1.324-.539 1.513-1.06.185-.522.185-.967.129-1.061-.056-.094-.206-.15-.43-.261-.223-.112-1.324-.65-1.53-.727-.206-.073-.357-.112-.503.11-.15.223-.58.724-.71.873-.128.15-.261.167-.485.056-.223-.111-.945-.347-1.8-1.108-.667-.59-1.118-1.322-1.247-1.544-.129-.223-.013-.342.099-.454.099-.098.223-.26.335-.389.112-.128.15-.222.224-.372.073-.15.038-.278-.018-.39-.056-.106-.494-1.21-.692-1.65z" fill="#fff"/></svg>