<?xml version="1.0" encoding="utf-8"?><svg width="187" height="59" fill="none" xmlns="http://www.w3.org/2000/svg" viewBox="0 0 187 59"><path d="M43.36 21.88c-.88 8.48-4.96 13.04-11.44 13.04-3.04 0-7.68-1.6-10.72-2.56-2.8-.96-7.52-2.96-10-2.96-2.72 0-4.88 2.24-5.36 5.68H.64C1.28 28.52 4.48 21.96 12 21.96c3.2 0 7.6 1.68 10.8 2.72 4.8 1.6 7.28 2.64 10.16 2.64 2.72 0 4.56-1.92 5.2-5.44h5.2zm0 15.92c-.88 8.48-4.96 13.04-11.44 13.04-3.04 0-7.68-1.6-10.72-2.56-2.8-.96-7.52-2.96-10-2.96-2.72 0-4.88 2.24-5.36 5.68H.64C1.28 44.44 4.48 37.88 12 37.88c3.2 0 7.6 1.68 10.8 2.72 4.8 1.6 7.28 2.64 10.16 2.64 2.72 0 4.56-1.92 5.2-5.44h5.2zM49.489 19c.32-11.52 7.2-18.56 18.24-18.56 10.32 0 17.36 6.08 17.36 15.04 0 5.44-3.04 9.84-7.84 11.44 6.32 1.6 10.16 6.48 10.16 13.2 0 10.72-8.16 18.08-19.84 18.08s-19.44-7.36-19.44-18.4v-1.2h8.8c.24 7.84 3.84 11.76 10.88 11.76 6.16 0 10.08-3.84 10.08-10 0-6.88-5.2-9.36-11.2-9.36-1.04 0-1.52 0-2.88.08V24.2h.8c5.6 0 11.52-.88 11.52-8.08 0-4.88-3.36-8.16-8.56-8.16-5.84 0-9.12 3.84-9.36 11.04h-8.72zm57.493 27.2V57h-10.88V46.2h10.88zM142.848.68V57h-9.76V18.28h-13.92v-6.72c6 0 14.72-1.12 16.32-10.88h7.36zm23.379 46.352V57h-1.75v-4.48h-4.564V57h-1.75v-9.968h1.75v3.962h4.564v-3.962h1.75zm2.053 0h4.718c1.792 0 3.36.714 3.36 2.772 0 1.204-.602 2.086-1.652 2.45 1.274.28 1.4 1.246 1.484 2.268.098 1.19.126 2.03.532 2.478h-1.876c-.252-.378-.266-1.064-.322-1.988-.098-1.568-.49-2.128-2.184-2.128h-2.324V57h-1.736v-9.968zm1.736 1.428v3.122h2.31c1.148 0 2.296-.168 2.296-1.596 0-1.316-1.022-1.526-2.072-1.526h-2.534zm16.676 4.746c-.182 2.422-1.848 4.032-4.34 4.032-2.814 0-4.662-2.072-4.662-5.222 0-2.828 1.722-5.208 4.746-5.208 1.988 0 3.836 1.092 4.172 3.402h-1.736c-.238-1.204-1.176-1.918-2.464-1.918-2.1 0-2.954 1.89-2.954 3.724 0 1.848.812 3.738 2.94 3.738 1.624 0 2.366-1.078 2.548-2.548h1.75z" fill="#898989"/></svg>